G04 EAGLE Gerber RS-274X export*
G75*
%MOMM*%
%FSLAX34Y34*%
%LPD*%
%INTop Copper*%
%IPPOS*%
%AMOC8*
5,1,8,0,0,1.08239X$1,22.5*%
G01*
%ADD10R,0.950000X0.850000*%
%ADD11R,0.600000X0.600000*%
%ADD12R,1.050000X0.900000*%
%ADD13R,1.000000X1.800000*%
%ADD14R,0.900000X1.050000*%
%ADD15R,4.850000X4.850000*%
%ADD16C,0.200000*%
%ADD17C,0.808000*%
%ADD18C,0.150000*%
%ADD19C,0.200000*%
%ADD20C,0.250000*%
%ADD21C,0.706400*%
%ADD22C,0.600000*%
%ADD23C,0.500000*%
%ADD24C,0.353200*%

G36*
X205654Y107013D02*
X205654Y107013D01*
X205758Y107015D01*
X205825Y107033D01*
X205894Y107041D01*
X205992Y107076D01*
X206093Y107102D01*
X206154Y107135D01*
X206219Y107158D01*
X206306Y107215D01*
X206399Y107264D01*
X206451Y107309D01*
X206509Y107347D01*
X206581Y107422D01*
X206659Y107491D01*
X206700Y107547D01*
X206747Y107597D01*
X206800Y107687D01*
X206861Y107772D01*
X206887Y107836D01*
X206922Y107895D01*
X206953Y107995D01*
X206993Y108091D01*
X207004Y108160D01*
X207024Y108226D01*
X207031Y108330D01*
X207048Y108433D01*
X207043Y108502D01*
X207048Y108571D01*
X207031Y108674D01*
X207024Y108778D01*
X207003Y108844D01*
X206992Y108912D01*
X206952Y109008D01*
X206921Y109108D01*
X206886Y109167D01*
X206859Y109231D01*
X206798Y109316D01*
X206745Y109406D01*
X206677Y109484D01*
X206657Y109511D01*
X206640Y109526D01*
X206610Y109560D01*
X206399Y109772D01*
X206136Y110228D01*
X205999Y110737D01*
X205999Y112501D01*
X211000Y112501D01*
X216001Y112501D01*
X216001Y110737D01*
X215864Y110228D01*
X215601Y109772D01*
X215390Y109560D01*
X215325Y109478D01*
X215253Y109403D01*
X215218Y109343D01*
X215175Y109289D01*
X215131Y109195D01*
X215078Y109105D01*
X215057Y109039D01*
X215028Y108976D01*
X215007Y108874D01*
X214976Y108774D01*
X214971Y108705D01*
X214957Y108638D01*
X214959Y108534D01*
X214952Y108429D01*
X214963Y108361D01*
X214965Y108292D01*
X214991Y108191D01*
X215008Y108088D01*
X215035Y108024D01*
X215052Y107958D01*
X215101Y107865D01*
X215141Y107769D01*
X215181Y107713D01*
X215213Y107652D01*
X215282Y107573D01*
X215343Y107489D01*
X215395Y107443D01*
X215441Y107391D01*
X215525Y107330D01*
X215604Y107262D01*
X215665Y107230D01*
X215721Y107189D01*
X215818Y107150D01*
X215910Y107101D01*
X215977Y107084D01*
X216041Y107058D01*
X216144Y107041D01*
X216245Y107015D01*
X216349Y107008D01*
X216382Y107002D01*
X216404Y107004D01*
X216450Y107001D01*
X219500Y107001D01*
X219535Y107005D01*
X219571Y107002D01*
X219707Y107025D01*
X219843Y107041D01*
X219877Y107053D01*
X219912Y107058D01*
X220039Y107111D01*
X220169Y107158D01*
X220198Y107177D01*
X220231Y107191D01*
X220343Y107272D01*
X220458Y107347D01*
X220483Y107373D01*
X220511Y107393D01*
X220602Y107497D01*
X220697Y107597D01*
X220715Y107628D01*
X220738Y107654D01*
X220802Y107777D01*
X220872Y107895D01*
X220882Y107929D01*
X220899Y107961D01*
X220933Y108094D01*
X220974Y108226D01*
X220976Y108261D01*
X220985Y108295D01*
X220999Y108500D01*
X220999Y189500D01*
X220995Y189535D01*
X220998Y189571D01*
X220975Y189707D01*
X220959Y189843D01*
X220947Y189877D01*
X220942Y189912D01*
X220889Y190039D01*
X220842Y190169D01*
X220823Y190198D01*
X220809Y190231D01*
X220728Y190343D01*
X220653Y190458D01*
X220627Y190483D01*
X220607Y190511D01*
X220503Y190602D01*
X220403Y190697D01*
X220372Y190715D01*
X220346Y190738D01*
X220223Y190802D01*
X220105Y190872D01*
X220071Y190882D01*
X220039Y190899D01*
X219906Y190933D01*
X219774Y190974D01*
X219739Y190976D01*
X219705Y190985D01*
X219500Y190999D01*
X117750Y190999D01*
X117715Y190995D01*
X117679Y190998D01*
X117543Y190975D01*
X117407Y190959D01*
X117373Y190947D01*
X117338Y190942D01*
X117211Y190889D01*
X117081Y190842D01*
X117052Y190823D01*
X117019Y190809D01*
X116907Y190728D01*
X116792Y190653D01*
X116767Y190627D01*
X116739Y190607D01*
X116648Y190503D01*
X116553Y190403D01*
X116535Y190372D01*
X116512Y190346D01*
X116448Y190223D01*
X116378Y190105D01*
X116368Y190071D01*
X116351Y190039D01*
X116317Y189906D01*
X116276Y189774D01*
X116274Y189739D01*
X116265Y189705D01*
X116251Y189500D01*
X116251Y158138D01*
X116269Y157983D01*
X116283Y157828D01*
X116289Y157812D01*
X116291Y157795D01*
X116344Y157648D01*
X116393Y157500D01*
X116402Y157486D01*
X116408Y157470D01*
X116494Y157338D01*
X116576Y157206D01*
X116588Y157194D01*
X116597Y157180D01*
X116710Y157072D01*
X116820Y156962D01*
X116835Y156953D01*
X116847Y156941D01*
X116982Y156862D01*
X117115Y156780D01*
X117131Y156775D01*
X117145Y156766D01*
X117294Y156720D01*
X117443Y156671D01*
X117459Y156669D01*
X117476Y156664D01*
X117632Y156654D01*
X117787Y156639D01*
X117804Y156642D01*
X117821Y156641D01*
X117975Y156666D01*
X118129Y156688D01*
X118150Y156695D01*
X118162Y156697D01*
X118187Y156707D01*
X118324Y156753D01*
X118999Y157033D01*
X121000Y157033D01*
X121035Y157037D01*
X121071Y157034D01*
X121207Y157057D01*
X121343Y157073D01*
X121377Y157085D01*
X121412Y157090D01*
X121539Y157143D01*
X121669Y157190D01*
X121698Y157209D01*
X121731Y157223D01*
X121843Y157304D01*
X121958Y157379D01*
X121983Y157405D01*
X122011Y157425D01*
X122102Y157529D01*
X122197Y157629D01*
X122215Y157660D01*
X122238Y157686D01*
X122302Y157809D01*
X122372Y157927D01*
X122382Y157961D01*
X122399Y157993D01*
X122433Y158126D01*
X122474Y158258D01*
X122476Y158293D01*
X122485Y158327D01*
X122499Y158532D01*
X122499Y163122D01*
X122978Y163600D01*
X123015Y163646D01*
X123058Y163686D01*
X123122Y163782D01*
X123193Y163871D01*
X123218Y163925D01*
X123250Y163973D01*
X123291Y164081D01*
X123340Y164184D01*
X123352Y164242D01*
X123372Y164297D01*
X123387Y164411D01*
X123411Y164523D01*
X123410Y164582D01*
X123417Y164640D01*
X123405Y164754D01*
X123403Y164868D01*
X123388Y164925D01*
X123382Y164984D01*
X123345Y165092D01*
X123316Y165203D01*
X123288Y165255D01*
X123269Y165310D01*
X123208Y165407D01*
X123154Y165509D01*
X123116Y165553D01*
X123084Y165603D01*
X123002Y165683D01*
X122927Y165769D01*
X122879Y165804D01*
X122837Y165845D01*
X122802Y165869D01*
X122399Y166271D01*
X122136Y166728D01*
X121999Y167237D01*
X121999Y169001D01*
X127000Y169001D01*
X132521Y169001D01*
X132597Y168928D01*
X132628Y168910D01*
X132654Y168887D01*
X132777Y168823D01*
X132895Y168753D01*
X132929Y168743D01*
X132960Y168726D01*
X133094Y168692D01*
X133226Y168651D01*
X133261Y168649D01*
X133295Y168640D01*
X133500Y168626D01*
X139125Y168626D01*
X139160Y168630D01*
X139195Y168627D01*
X139331Y168650D01*
X139468Y168666D01*
X139502Y168678D01*
X139537Y168683D01*
X139664Y168736D01*
X139793Y168783D01*
X139823Y168802D01*
X139856Y168816D01*
X139968Y168897D01*
X140083Y168972D01*
X140107Y168998D01*
X140136Y169018D01*
X140227Y169122D01*
X140322Y169222D01*
X140340Y169253D01*
X140363Y169279D01*
X140427Y169402D01*
X140497Y169520D01*
X140507Y169554D01*
X140524Y169585D01*
X140558Y169719D01*
X140599Y169851D01*
X140601Y169886D01*
X140605Y169903D01*
X140718Y169916D01*
X140752Y169928D01*
X140787Y169934D01*
X140914Y169986D01*
X141044Y170033D01*
X141073Y170053D01*
X141106Y170066D01*
X141218Y170147D01*
X141333Y170222D01*
X141358Y170248D01*
X141386Y170269D01*
X141477Y170373D01*
X141572Y170472D01*
X141590Y170503D01*
X141613Y170530D01*
X141677Y170652D01*
X141747Y170770D01*
X141757Y170804D01*
X141774Y170836D01*
X141808Y170969D01*
X141849Y171101D01*
X141851Y171136D01*
X141860Y171171D01*
X141874Y171375D01*
X141874Y177001D01*
X144763Y177001D01*
X145272Y176864D01*
X145729Y176601D01*
X146153Y176176D01*
X146178Y176147D01*
X146247Y176055D01*
X146292Y176017D01*
X146330Y175973D01*
X146424Y175906D01*
X146511Y175832D01*
X146563Y175806D01*
X146611Y175771D01*
X146717Y175728D01*
X146819Y175676D01*
X146876Y175662D01*
X146931Y175639D01*
X147044Y175621D01*
X147155Y175594D01*
X147214Y175594D01*
X147272Y175584D01*
X147387Y175592D01*
X147501Y175591D01*
X147558Y175604D01*
X147617Y175609D01*
X147727Y175643D01*
X147838Y175668D01*
X147891Y175694D01*
X147947Y175711D01*
X148046Y175770D01*
X148149Y175820D01*
X148194Y175857D01*
X148245Y175887D01*
X148400Y176022D01*
X148878Y176501D01*
X159622Y176501D01*
X160513Y175609D01*
X160515Y175535D01*
X160533Y175468D01*
X160541Y175399D01*
X160576Y175301D01*
X160602Y175200D01*
X160635Y175139D01*
X160658Y175074D01*
X160715Y174987D01*
X160764Y174894D01*
X160809Y174842D01*
X160847Y174784D01*
X160922Y174712D01*
X160991Y174634D01*
X161047Y174593D01*
X161097Y174546D01*
X161187Y174493D01*
X161272Y174432D01*
X161336Y174406D01*
X161395Y174371D01*
X161495Y174340D01*
X161591Y174300D01*
X161660Y174289D01*
X161726Y174269D01*
X161830Y174262D01*
X161933Y174245D01*
X162002Y174250D01*
X162071Y174245D01*
X162173Y174262D01*
X162278Y174269D01*
X162344Y174290D01*
X162412Y174301D01*
X162508Y174341D01*
X162608Y174372D01*
X162667Y174407D01*
X162731Y174434D01*
X162816Y174495D01*
X162905Y174548D01*
X162984Y174616D01*
X163011Y174636D01*
X163026Y174653D01*
X163060Y174682D01*
X163378Y175001D01*
X170622Y175001D01*
X171501Y174122D01*
X171501Y166878D01*
X171022Y166400D01*
X170986Y166354D01*
X170943Y166314D01*
X170878Y166218D01*
X170807Y166128D01*
X170782Y166075D01*
X170750Y166027D01*
X170709Y165919D01*
X170660Y165815D01*
X170648Y165758D01*
X170628Y165703D01*
X170613Y165589D01*
X170589Y165477D01*
X170590Y165419D01*
X170583Y165361D01*
X170595Y165246D01*
X170597Y165132D01*
X170612Y165075D01*
X170618Y165017D01*
X170655Y164908D01*
X170684Y164797D01*
X170712Y164745D01*
X170731Y164690D01*
X170792Y164592D01*
X170846Y164491D01*
X170884Y164447D01*
X170916Y164398D01*
X170998Y164317D01*
X171073Y164231D01*
X171121Y164196D01*
X171162Y164155D01*
X171198Y164131D01*
X171601Y163729D01*
X171864Y163272D01*
X172001Y162763D01*
X172001Y160999D01*
X167000Y160999D01*
X161479Y160999D01*
X161403Y161072D01*
X161372Y161090D01*
X161346Y161113D01*
X161223Y161177D01*
X161105Y161247D01*
X161071Y161257D01*
X161039Y161274D01*
X160906Y161308D01*
X160774Y161349D01*
X160739Y161351D01*
X160705Y161360D01*
X160500Y161374D01*
X154875Y161374D01*
X154840Y161370D01*
X154805Y161373D01*
X154669Y161350D01*
X154532Y161334D01*
X154498Y161322D01*
X154463Y161317D01*
X154336Y161264D01*
X154207Y161217D01*
X154177Y161198D01*
X154144Y161184D01*
X154032Y161103D01*
X153917Y161028D01*
X153893Y161002D01*
X153864Y160982D01*
X153773Y160878D01*
X153678Y160778D01*
X153660Y160747D01*
X153637Y160721D01*
X153573Y160598D01*
X153503Y160480D01*
X153493Y160446D01*
X153476Y160414D01*
X153442Y160281D01*
X153401Y160149D01*
X153399Y160114D01*
X153395Y160097D01*
X153282Y160084D01*
X153248Y160072D01*
X153213Y160066D01*
X153086Y160014D01*
X152956Y159967D01*
X152927Y159947D01*
X152894Y159934D01*
X152782Y159853D01*
X152667Y159778D01*
X152642Y159752D01*
X152614Y159731D01*
X152523Y159627D01*
X152428Y159528D01*
X152410Y159497D01*
X152387Y159470D01*
X152323Y159348D01*
X152253Y159230D01*
X152243Y159196D01*
X152226Y159164D01*
X152192Y159031D01*
X152151Y158899D01*
X152149Y158864D01*
X152140Y158829D01*
X152126Y158625D01*
X152126Y152999D01*
X150750Y152999D01*
X150715Y152995D01*
X150679Y152998D01*
X150543Y152975D01*
X150407Y152959D01*
X150373Y152947D01*
X150338Y152942D01*
X150211Y152889D01*
X150081Y152842D01*
X150052Y152823D01*
X150019Y152809D01*
X149907Y152728D01*
X149792Y152653D01*
X149767Y152627D01*
X149739Y152607D01*
X149648Y152503D01*
X149553Y152403D01*
X149535Y152372D01*
X149512Y152346D01*
X149448Y152223D01*
X149378Y152105D01*
X149368Y152071D01*
X149351Y152039D01*
X149317Y151906D01*
X149276Y151774D01*
X149274Y151739D01*
X149265Y151705D01*
X149251Y151500D01*
X149251Y143493D01*
X149263Y143389D01*
X149265Y143285D01*
X149283Y143218D01*
X149291Y143149D01*
X149326Y143051D01*
X149352Y142950D01*
X149385Y142889D01*
X149408Y142824D01*
X149465Y142737D01*
X149514Y142644D01*
X149559Y142592D01*
X149597Y142534D01*
X149672Y142462D01*
X149741Y142384D01*
X149797Y142343D01*
X149847Y142296D01*
X149937Y142243D01*
X150022Y142182D01*
X150086Y142156D01*
X150145Y142121D01*
X150245Y142090D01*
X150341Y142050D01*
X150410Y142039D01*
X150476Y142019D01*
X150580Y142012D01*
X150683Y141995D01*
X150752Y142000D01*
X150821Y141995D01*
X150924Y142012D01*
X151028Y142019D01*
X151094Y142040D01*
X151162Y142051D01*
X151258Y142091D01*
X151358Y142122D01*
X151417Y142157D01*
X151481Y142184D01*
X151566Y142245D01*
X151655Y142298D01*
X151734Y142366D01*
X151761Y142386D01*
X151776Y142403D01*
X151810Y142432D01*
X151878Y142501D01*
X159122Y142501D01*
X159600Y142022D01*
X159646Y141986D01*
X159686Y141943D01*
X159782Y141878D01*
X159872Y141807D01*
X159925Y141782D01*
X159973Y141750D01*
X160081Y141709D01*
X160185Y141660D01*
X160242Y141648D01*
X160297Y141628D01*
X160411Y141613D01*
X160523Y141589D01*
X160581Y141590D01*
X160639Y141583D01*
X160754Y141595D01*
X160868Y141597D01*
X160925Y141612D01*
X160983Y141618D01*
X161092Y141655D01*
X161203Y141684D01*
X161255Y141712D01*
X161310Y141731D01*
X161408Y141792D01*
X161509Y141846D01*
X161553Y141884D01*
X161602Y141916D01*
X161683Y141998D01*
X161769Y142073D01*
X161804Y142121D01*
X161845Y142162D01*
X161869Y142198D01*
X162271Y142601D01*
X162728Y142864D01*
X163237Y143001D01*
X165001Y143001D01*
X165001Y138000D01*
X165005Y137965D01*
X165002Y137930D01*
X165025Y137794D01*
X165040Y137657D01*
X165052Y137624D01*
X165058Y137589D01*
X165111Y137461D01*
X165158Y137332D01*
X165177Y137302D01*
X165191Y137269D01*
X165271Y137158D01*
X165347Y137042D01*
X165372Y137018D01*
X165393Y136989D01*
X165394Y136989D01*
X165394Y136988D01*
X165498Y136898D01*
X165597Y136803D01*
X165628Y136785D01*
X165655Y136762D01*
X165777Y136698D01*
X165896Y136628D01*
X165929Y136618D01*
X165961Y136601D01*
X166094Y136567D01*
X166226Y136526D01*
X166261Y136523D01*
X166296Y136515D01*
X166500Y136501D01*
X171501Y136501D01*
X171501Y134737D01*
X171330Y134100D01*
X171314Y133991D01*
X171289Y133883D01*
X171289Y133820D01*
X171280Y133758D01*
X171289Y133648D01*
X171289Y133538D01*
X171304Y133476D01*
X171309Y133414D01*
X171343Y133309D01*
X171369Y133201D01*
X171397Y133145D01*
X171417Y133085D01*
X171474Y132991D01*
X171523Y132892D01*
X171564Y132844D01*
X171596Y132790D01*
X171674Y132711D01*
X171745Y132626D01*
X171795Y132588D01*
X171839Y132544D01*
X171933Y132485D01*
X172021Y132418D01*
X172104Y132377D01*
X172132Y132360D01*
X172156Y132351D01*
X172205Y132327D01*
X172351Y132267D01*
X173767Y130851D01*
X174533Y129001D01*
X174533Y126999D01*
X173767Y125149D01*
X172351Y123733D01*
X170501Y122967D01*
X168499Y122967D01*
X166660Y123729D01*
X166579Y123752D01*
X166500Y123785D01*
X166413Y123799D01*
X166328Y123824D01*
X166243Y123827D01*
X166159Y123841D01*
X166071Y123835D01*
X165982Y123839D01*
X165899Y123824D01*
X165814Y123818D01*
X165729Y123792D01*
X165642Y123776D01*
X165565Y123741D01*
X165484Y123717D01*
X165407Y123672D01*
X165326Y123636D01*
X165258Y123585D01*
X165230Y123568D01*
X165196Y123549D01*
X165194Y123547D01*
X165185Y123542D01*
X165071Y123443D01*
X165050Y123427D01*
X165044Y123420D01*
X165030Y123408D01*
X165026Y123403D01*
X164987Y123355D01*
X164942Y123314D01*
X164884Y123227D01*
X164830Y123161D01*
X164825Y123152D01*
X164810Y123133D01*
X164784Y123077D01*
X164750Y123027D01*
X164710Y122922D01*
X164696Y122893D01*
X164676Y122852D01*
X164675Y122848D01*
X164662Y122820D01*
X164649Y122761D01*
X164628Y122703D01*
X164613Y122592D01*
X164590Y122482D01*
X164591Y122421D01*
X164583Y122360D01*
X164594Y122249D01*
X164596Y122137D01*
X164612Y122077D01*
X164618Y122016D01*
X164655Y121910D01*
X164682Y121802D01*
X164711Y121748D01*
X164731Y121690D01*
X164791Y121595D01*
X164843Y121496D01*
X164883Y121449D01*
X164916Y121397D01*
X164996Y121319D01*
X165069Y121234D01*
X165119Y121198D01*
X165163Y121155D01*
X165198Y121131D01*
X165601Y120729D01*
X165864Y120272D01*
X166001Y119763D01*
X166001Y117999D01*
X161000Y117999D01*
X160965Y117995D01*
X160930Y117998D01*
X160794Y117975D01*
X160657Y117960D01*
X160624Y117947D01*
X160589Y117942D01*
X160461Y117889D01*
X160332Y117842D01*
X160302Y117823D01*
X160269Y117809D01*
X160158Y117729D01*
X160042Y117653D01*
X160018Y117628D01*
X159989Y117607D01*
X159898Y117503D01*
X159803Y117403D01*
X159786Y117373D01*
X159762Y117346D01*
X159698Y117223D01*
X159628Y117105D01*
X159618Y117071D01*
X159601Y117040D01*
X159567Y116906D01*
X159526Y116775D01*
X159524Y116739D01*
X159515Y116705D01*
X159501Y116500D01*
X159505Y116465D01*
X159503Y116430D01*
X159503Y116429D01*
X159525Y116293D01*
X159541Y116156D01*
X159553Y116123D01*
X159559Y116088D01*
X159612Y115961D01*
X159658Y115831D01*
X159678Y115801D01*
X159691Y115769D01*
X159772Y115657D01*
X159847Y115542D01*
X159873Y115517D01*
X159894Y115488D01*
X159998Y115398D01*
X160097Y115303D01*
X160128Y115285D01*
X160155Y115262D01*
X160277Y115198D01*
X160396Y115128D01*
X160429Y115118D01*
X160461Y115101D01*
X160594Y115067D01*
X160726Y115026D01*
X160761Y115023D01*
X160796Y115015D01*
X161000Y115001D01*
X166001Y115001D01*
X166001Y114621D01*
X166001Y109000D01*
X166005Y108965D01*
X166002Y108929D01*
X166025Y108793D01*
X166041Y108657D01*
X166053Y108623D01*
X166058Y108588D01*
X166111Y108461D01*
X166158Y108331D01*
X166177Y108302D01*
X166191Y108269D01*
X166272Y108157D01*
X166347Y108042D01*
X166373Y108017D01*
X166393Y107989D01*
X166497Y107898D01*
X166597Y107803D01*
X166628Y107785D01*
X166654Y107762D01*
X166777Y107698D01*
X166895Y107628D01*
X166929Y107618D01*
X166961Y107601D01*
X167094Y107567D01*
X167226Y107526D01*
X167261Y107524D01*
X167295Y107515D01*
X167500Y107501D01*
X173113Y107501D01*
X173194Y107510D01*
X173276Y107510D01*
X173365Y107530D01*
X173457Y107541D01*
X173533Y107568D01*
X173613Y107586D01*
X173695Y107627D01*
X173782Y107658D01*
X173850Y107703D01*
X173923Y107738D01*
X173994Y107797D01*
X174072Y107847D01*
X174128Y107906D01*
X174191Y107957D01*
X174247Y108030D01*
X174310Y108097D01*
X174351Y108167D01*
X174401Y108232D01*
X174439Y108316D01*
X174485Y108395D01*
X174509Y108473D01*
X174543Y108547D01*
X174560Y108638D01*
X174587Y108726D01*
X174593Y108807D01*
X174608Y108887D01*
X174605Y108979D01*
X174611Y109071D01*
X174598Y109151D01*
X174594Y109232D01*
X174570Y109321D01*
X174555Y109412D01*
X174524Y109487D01*
X174502Y109565D01*
X174430Y109711D01*
X174422Y109731D01*
X174418Y109737D01*
X174412Y109750D01*
X174136Y110228D01*
X173999Y110737D01*
X173999Y112501D01*
X179000Y112501D01*
X184001Y112501D01*
X184001Y110737D01*
X183864Y110228D01*
X183601Y109772D01*
X183390Y109560D01*
X183325Y109478D01*
X183253Y109403D01*
X183218Y109343D01*
X183175Y109289D01*
X183131Y109195D01*
X183078Y109105D01*
X183057Y109039D01*
X183028Y108976D01*
X183007Y108874D01*
X182976Y108774D01*
X182971Y108705D01*
X182957Y108638D01*
X182959Y108534D01*
X182952Y108429D01*
X182963Y108361D01*
X182965Y108292D01*
X182991Y108191D01*
X183008Y108088D01*
X183035Y108024D01*
X183052Y107958D01*
X183101Y107865D01*
X183141Y107769D01*
X183181Y107713D01*
X183213Y107652D01*
X183282Y107573D01*
X183343Y107489D01*
X183395Y107443D01*
X183441Y107391D01*
X183525Y107330D01*
X183604Y107262D01*
X183665Y107230D01*
X183721Y107189D01*
X183818Y107150D01*
X183910Y107101D01*
X183977Y107084D01*
X184041Y107058D01*
X184144Y107041D01*
X184245Y107015D01*
X184349Y107008D01*
X184382Y107002D01*
X184404Y107004D01*
X184450Y107001D01*
X205550Y107001D01*
X205654Y107013D01*
G37*
G36*
X219535Y4005D02*
X219535Y4005D01*
X219571Y4002D01*
X219707Y4025D01*
X219843Y4041D01*
X219877Y4053D01*
X219912Y4058D01*
X220039Y4111D01*
X220169Y4158D01*
X220198Y4177D01*
X220231Y4191D01*
X220343Y4272D01*
X220458Y4347D01*
X220483Y4373D01*
X220511Y4393D01*
X220602Y4497D01*
X220697Y4597D01*
X220715Y4628D01*
X220738Y4654D01*
X220802Y4777D01*
X220872Y4895D01*
X220882Y4929D01*
X220899Y4961D01*
X220933Y5094D01*
X220974Y5226D01*
X220976Y5261D01*
X220985Y5295D01*
X220999Y5500D01*
X220999Y97500D01*
X220995Y97535D01*
X220998Y97571D01*
X220975Y97707D01*
X220959Y97843D01*
X220947Y97877D01*
X220942Y97912D01*
X220889Y98039D01*
X220842Y98169D01*
X220823Y98198D01*
X220809Y98231D01*
X220728Y98343D01*
X220653Y98458D01*
X220627Y98483D01*
X220607Y98511D01*
X220503Y98602D01*
X220403Y98697D01*
X220372Y98715D01*
X220346Y98738D01*
X220223Y98802D01*
X220105Y98872D01*
X220071Y98882D01*
X220039Y98899D01*
X219906Y98933D01*
X219774Y98974D01*
X219739Y98976D01*
X219705Y98985D01*
X219500Y98999D01*
X215743Y98999D01*
X215604Y98983D01*
X215465Y98973D01*
X215433Y98963D01*
X215399Y98959D01*
X215268Y98912D01*
X215135Y98871D01*
X215106Y98853D01*
X215074Y98842D01*
X214957Y98766D01*
X214837Y98695D01*
X214803Y98665D01*
X214784Y98653D01*
X214761Y98629D01*
X214683Y98560D01*
X214622Y98499D01*
X207378Y98499D01*
X207317Y98560D01*
X207208Y98647D01*
X207103Y98738D01*
X207073Y98754D01*
X207046Y98775D01*
X206920Y98834D01*
X206797Y98899D01*
X206764Y98907D01*
X206733Y98922D01*
X206597Y98950D01*
X206462Y98985D01*
X206417Y98988D01*
X206395Y98993D01*
X206361Y98992D01*
X206257Y98999D01*
X183743Y98999D01*
X183604Y98983D01*
X183465Y98973D01*
X183433Y98963D01*
X183399Y98959D01*
X183268Y98912D01*
X183135Y98871D01*
X183106Y98853D01*
X183074Y98842D01*
X182957Y98766D01*
X182837Y98695D01*
X182803Y98665D01*
X182784Y98653D01*
X182761Y98629D01*
X182683Y98560D01*
X182622Y98499D01*
X175378Y98499D01*
X175317Y98560D01*
X175208Y98647D01*
X175103Y98738D01*
X175073Y98754D01*
X175046Y98775D01*
X174920Y98834D01*
X174797Y98899D01*
X174764Y98907D01*
X174733Y98922D01*
X174597Y98950D01*
X174462Y98985D01*
X174417Y98988D01*
X174395Y98993D01*
X174361Y98992D01*
X174257Y98999D01*
X173743Y98999D01*
X173604Y98983D01*
X173465Y98973D01*
X173433Y98963D01*
X173399Y98959D01*
X173268Y98912D01*
X173135Y98871D01*
X173106Y98853D01*
X173074Y98842D01*
X172957Y98766D01*
X172837Y98695D01*
X172803Y98665D01*
X172784Y98653D01*
X172761Y98629D01*
X172683Y98560D01*
X172622Y98499D01*
X167500Y98499D01*
X167465Y98495D01*
X167429Y98498D01*
X167293Y98475D01*
X167157Y98459D01*
X167123Y98447D01*
X167088Y98442D01*
X166961Y98389D01*
X166831Y98342D01*
X166802Y98323D01*
X166769Y98309D01*
X166657Y98228D01*
X166542Y98153D01*
X166517Y98127D01*
X166489Y98107D01*
X166398Y98003D01*
X166303Y97903D01*
X166285Y97872D01*
X166262Y97846D01*
X166198Y97723D01*
X166128Y97605D01*
X166118Y97571D01*
X166101Y97539D01*
X166067Y97406D01*
X166026Y97274D01*
X166024Y97239D01*
X166015Y97205D01*
X166001Y97000D01*
X166001Y92500D01*
X166005Y92465D01*
X166002Y92429D01*
X166025Y92293D01*
X166041Y92157D01*
X166053Y92123D01*
X166058Y92088D01*
X166111Y91961D01*
X166158Y91831D01*
X166177Y91802D01*
X166191Y91769D01*
X166272Y91657D01*
X166347Y91542D01*
X166373Y91517D01*
X166393Y91489D01*
X166497Y91398D01*
X166597Y91303D01*
X166628Y91285D01*
X166654Y91262D01*
X166777Y91198D01*
X166895Y91128D01*
X166929Y91118D01*
X166961Y91101D01*
X167094Y91067D01*
X167226Y91026D01*
X167261Y91024D01*
X167295Y91015D01*
X167500Y91001D01*
X181536Y91001D01*
X187501Y85036D01*
X187501Y5500D01*
X187505Y5465D01*
X187502Y5429D01*
X187525Y5293D01*
X187541Y5157D01*
X187553Y5123D01*
X187558Y5088D01*
X187611Y4961D01*
X187658Y4831D01*
X187677Y4802D01*
X187691Y4769D01*
X187772Y4657D01*
X187847Y4542D01*
X187873Y4517D01*
X187893Y4489D01*
X187997Y4398D01*
X188097Y4303D01*
X188128Y4285D01*
X188154Y4262D01*
X188277Y4198D01*
X188395Y4128D01*
X188429Y4118D01*
X188461Y4101D01*
X188594Y4067D01*
X188726Y4026D01*
X188761Y4024D01*
X188795Y4015D01*
X189000Y4001D01*
X219500Y4001D01*
X219535Y4005D01*
G37*
G36*
X11035Y112505D02*
X11035Y112505D01*
X11070Y112503D01*
X11071Y112503D01*
X11207Y112525D01*
X11344Y112541D01*
X11377Y112553D01*
X11412Y112559D01*
X11539Y112612D01*
X11669Y112658D01*
X11699Y112678D01*
X11731Y112691D01*
X11843Y112772D01*
X11958Y112847D01*
X11983Y112873D01*
X12012Y112894D01*
X12102Y112998D01*
X12197Y113097D01*
X12215Y113128D01*
X12238Y113155D01*
X12302Y113277D01*
X12372Y113396D01*
X12382Y113429D01*
X12399Y113461D01*
X12433Y113594D01*
X12474Y113726D01*
X12477Y113761D01*
X12485Y113796D01*
X12499Y114000D01*
X12499Y119001D01*
X14263Y119001D01*
X14772Y118864D01*
X15229Y118601D01*
X15543Y118286D01*
X15571Y118264D01*
X15595Y118237D01*
X15707Y118157D01*
X15814Y118071D01*
X15847Y118056D01*
X15875Y118036D01*
X16003Y117983D01*
X16127Y117925D01*
X16162Y117917D01*
X16195Y117904D01*
X16331Y117882D01*
X16466Y117853D01*
X16501Y117854D01*
X16536Y117848D01*
X16674Y117858D01*
X16811Y117861D01*
X16846Y117870D01*
X16881Y117873D01*
X17013Y117914D01*
X17146Y117949D01*
X17177Y117965D01*
X17211Y117976D01*
X17330Y118046D01*
X17452Y118110D01*
X17479Y118133D01*
X17509Y118151D01*
X17664Y118286D01*
X18378Y119001D01*
X27197Y119001D01*
X27335Y119017D01*
X27474Y119027D01*
X27507Y119037D01*
X27540Y119041D01*
X27671Y119088D01*
X27804Y119129D01*
X27833Y119147D01*
X27865Y119158D01*
X27982Y119234D01*
X28102Y119305D01*
X28136Y119335D01*
X28155Y119347D01*
X28178Y119371D01*
X28257Y119440D01*
X31068Y122251D01*
X33500Y122251D01*
X33535Y122255D01*
X33571Y122252D01*
X33707Y122275D01*
X33843Y122291D01*
X33877Y122303D01*
X33912Y122308D01*
X34039Y122361D01*
X34169Y122408D01*
X34198Y122427D01*
X34231Y122441D01*
X34343Y122522D01*
X34458Y122597D01*
X34483Y122623D01*
X34511Y122643D01*
X34602Y122747D01*
X34697Y122847D01*
X34715Y122878D01*
X34738Y122904D01*
X34802Y123027D01*
X34872Y123145D01*
X34882Y123179D01*
X34899Y123211D01*
X34933Y123344D01*
X34974Y123476D01*
X34976Y123511D01*
X34985Y123545D01*
X34999Y123750D01*
X34999Y124001D01*
X40000Y124001D01*
X40035Y124005D01*
X40070Y124002D01*
X40206Y124025D01*
X40343Y124040D01*
X40376Y124052D01*
X40411Y124058D01*
X40539Y124111D01*
X40668Y124158D01*
X40698Y124177D01*
X40731Y124191D01*
X40842Y124271D01*
X40958Y124347D01*
X40982Y124372D01*
X41011Y124393D01*
X41102Y124497D01*
X41197Y124597D01*
X41214Y124627D01*
X41238Y124654D01*
X41302Y124777D01*
X41372Y124895D01*
X41382Y124929D01*
X41399Y124960D01*
X41433Y125094D01*
X41474Y125225D01*
X41476Y125261D01*
X41485Y125295D01*
X41499Y125500D01*
X41495Y125535D01*
X41497Y125570D01*
X41497Y125571D01*
X41475Y125707D01*
X41459Y125844D01*
X41447Y125877D01*
X41441Y125912D01*
X41388Y126039D01*
X41342Y126169D01*
X41322Y126199D01*
X41309Y126231D01*
X41228Y126343D01*
X41153Y126458D01*
X41127Y126483D01*
X41106Y126512D01*
X41002Y126602D01*
X40903Y126697D01*
X40872Y126715D01*
X40845Y126738D01*
X40723Y126802D01*
X40604Y126872D01*
X40571Y126882D01*
X40539Y126899D01*
X40406Y126933D01*
X40274Y126974D01*
X40239Y126977D01*
X40204Y126985D01*
X40000Y126999D01*
X34999Y126999D01*
X34999Y128763D01*
X35171Y129405D01*
X35185Y129438D01*
X35206Y129553D01*
X35235Y129666D01*
X35241Y129747D01*
X35246Y129778D01*
X35245Y129807D01*
X35249Y129871D01*
X35249Y136250D01*
X35245Y136285D01*
X35248Y136320D01*
X35225Y136456D01*
X35209Y136593D01*
X35197Y136627D01*
X35192Y136662D01*
X35139Y136789D01*
X35092Y136918D01*
X35073Y136948D01*
X35059Y136981D01*
X35041Y137006D01*
X35052Y137027D01*
X35122Y137145D01*
X35132Y137179D01*
X35149Y137211D01*
X35183Y137344D01*
X35224Y137476D01*
X35226Y137511D01*
X35235Y137546D01*
X35249Y137750D01*
X35249Y144951D01*
X35257Y145037D01*
X35255Y145054D01*
X35256Y145071D01*
X35231Y145225D01*
X35209Y145379D01*
X35202Y145400D01*
X35200Y145412D01*
X35189Y145437D01*
X35143Y145574D01*
X34967Y145999D01*
X34967Y148001D01*
X35733Y149851D01*
X37149Y151267D01*
X38999Y152033D01*
X41001Y152033D01*
X41926Y151649D01*
X42077Y151607D01*
X42226Y151561D01*
X42243Y151560D01*
X42259Y151555D01*
X42414Y151548D01*
X42571Y151537D01*
X42587Y151540D01*
X42604Y151539D01*
X42758Y151568D01*
X42912Y151593D01*
X42927Y151599D01*
X42944Y151603D01*
X43088Y151666D01*
X43231Y151726D01*
X43245Y151735D01*
X43260Y151742D01*
X43385Y151837D01*
X43511Y151928D01*
X43523Y151941D01*
X43536Y151951D01*
X43636Y152071D01*
X43738Y152189D01*
X43746Y152204D01*
X43757Y152217D01*
X43826Y152357D01*
X43899Y152495D01*
X43903Y152512D01*
X43911Y152527D01*
X43946Y152679D01*
X43985Y152830D01*
X43987Y152852D01*
X43989Y152863D01*
X43989Y152891D01*
X43999Y153035D01*
X43999Y158872D01*
X45068Y159940D01*
X45090Y159968D01*
X45116Y159991D01*
X45197Y160103D01*
X45282Y160211D01*
X45297Y160243D01*
X45318Y160272D01*
X45371Y160399D01*
X45429Y160524D01*
X45436Y160559D01*
X45450Y160591D01*
X45472Y160728D01*
X45500Y160862D01*
X45499Y160898D01*
X45505Y160933D01*
X45495Y161070D01*
X45492Y161208D01*
X45483Y161242D01*
X45481Y161278D01*
X45440Y161409D01*
X45405Y161542D01*
X45389Y161574D01*
X45378Y161608D01*
X45308Y161726D01*
X45244Y161848D01*
X45220Y161875D01*
X45202Y161905D01*
X45068Y162060D01*
X43999Y163128D01*
X43999Y174872D01*
X44878Y175751D01*
X46000Y175751D01*
X46035Y175755D01*
X46071Y175752D01*
X46207Y175775D01*
X46343Y175791D01*
X46377Y175803D01*
X46412Y175808D01*
X46539Y175861D01*
X46669Y175908D01*
X46698Y175927D01*
X46731Y175941D01*
X46843Y176022D01*
X46958Y176097D01*
X46983Y176123D01*
X47011Y176143D01*
X47102Y176247D01*
X47197Y176347D01*
X47215Y176378D01*
X47238Y176404D01*
X47302Y176527D01*
X47372Y176645D01*
X47382Y176679D01*
X47399Y176711D01*
X47433Y176844D01*
X47474Y176976D01*
X47476Y177011D01*
X47485Y177045D01*
X47499Y177250D01*
X47499Y178257D01*
X47483Y178396D01*
X47473Y178535D01*
X47463Y178567D01*
X47459Y178601D01*
X47412Y178732D01*
X47371Y178865D01*
X47353Y178894D01*
X47342Y178926D01*
X47266Y179043D01*
X47195Y179163D01*
X47165Y179197D01*
X47153Y179216D01*
X47129Y179239D01*
X47060Y179317D01*
X46999Y179378D01*
X46999Y186622D01*
X47878Y187501D01*
X55122Y187501D01*
X55940Y186682D01*
X55968Y186660D01*
X55991Y186634D01*
X56103Y186553D01*
X56211Y186468D01*
X56243Y186453D01*
X56272Y186432D01*
X56399Y186379D01*
X56524Y186321D01*
X56559Y186314D01*
X56591Y186300D01*
X56728Y186278D01*
X56862Y186250D01*
X56898Y186251D01*
X56933Y186245D01*
X57070Y186255D01*
X57208Y186258D01*
X57242Y186267D01*
X57278Y186269D01*
X57409Y186310D01*
X57542Y186345D01*
X57574Y186361D01*
X57608Y186372D01*
X57726Y186442D01*
X57848Y186506D01*
X57875Y186530D01*
X57905Y186548D01*
X58060Y186682D01*
X58878Y187501D01*
X66122Y187501D01*
X67001Y186622D01*
X67001Y182657D01*
X67017Y182519D01*
X67027Y182379D01*
X67037Y182347D01*
X67041Y182313D01*
X67088Y182182D01*
X67129Y182049D01*
X67147Y182020D01*
X67158Y181988D01*
X67234Y181872D01*
X67305Y181751D01*
X67335Y181717D01*
X67347Y181699D01*
X67371Y181675D01*
X67440Y181597D01*
X68501Y180536D01*
X68501Y166500D01*
X68505Y166465D01*
X68502Y166429D01*
X68525Y166293D01*
X68541Y166157D01*
X68553Y166123D01*
X68558Y166088D01*
X68611Y165961D01*
X68658Y165831D01*
X68677Y165802D01*
X68691Y165769D01*
X68772Y165657D01*
X68847Y165542D01*
X68873Y165517D01*
X68893Y165489D01*
X68997Y165398D01*
X69097Y165303D01*
X69128Y165285D01*
X69154Y165262D01*
X69277Y165198D01*
X69395Y165128D01*
X69429Y165118D01*
X69461Y165101D01*
X69594Y165067D01*
X69726Y165026D01*
X69761Y165024D01*
X69795Y165015D01*
X70000Y165001D01*
X71872Y165001D01*
X72667Y164205D01*
X72713Y164168D01*
X72753Y164126D01*
X72848Y164062D01*
X72939Y163990D01*
X72991Y163965D01*
X73040Y163933D01*
X73148Y163892D01*
X73252Y163843D01*
X73309Y163831D01*
X73364Y163811D01*
X73477Y163796D01*
X73590Y163772D01*
X73648Y163773D01*
X73706Y163766D01*
X73820Y163777D01*
X73935Y163780D01*
X73992Y163795D01*
X74050Y163801D01*
X74159Y163838D01*
X74270Y163867D01*
X74322Y163895D01*
X74377Y163914D01*
X74474Y163975D01*
X74576Y164029D01*
X74620Y164067D01*
X74669Y164098D01*
X74750Y164180D01*
X74836Y164256D01*
X74871Y164303D01*
X74912Y164345D01*
X75026Y164515D01*
X75149Y164729D01*
X75521Y165101D01*
X75978Y165364D01*
X76487Y165501D01*
X79751Y165501D01*
X79751Y159750D01*
X79755Y159715D01*
X79752Y159680D01*
X79775Y159543D01*
X79791Y159407D01*
X79803Y159373D01*
X79808Y159338D01*
X79861Y159211D01*
X79908Y159082D01*
X79927Y159052D01*
X79941Y159019D01*
X80022Y158907D01*
X80097Y158792D01*
X80123Y158768D01*
X80143Y158739D01*
X80247Y158648D01*
X80347Y158553D01*
X80378Y158535D01*
X80404Y158512D01*
X80527Y158448D01*
X80645Y158378D01*
X80679Y158368D01*
X80710Y158351D01*
X80844Y158317D01*
X80976Y158276D01*
X81011Y158274D01*
X81045Y158265D01*
X81250Y158251D01*
X82750Y158251D01*
X82785Y158255D01*
X82821Y158253D01*
X82957Y158275D01*
X83093Y158291D01*
X83127Y158303D01*
X83162Y158309D01*
X83289Y158361D01*
X83419Y158408D01*
X83448Y158428D01*
X83481Y158441D01*
X83593Y158522D01*
X83708Y158597D01*
X83733Y158623D01*
X83761Y158644D01*
X83852Y158748D01*
X83947Y158847D01*
X83965Y158878D01*
X83988Y158905D01*
X84052Y159027D01*
X84122Y159145D01*
X84132Y159179D01*
X84149Y159211D01*
X84183Y159344D01*
X84224Y159476D01*
X84226Y159511D01*
X84235Y159546D01*
X84249Y159750D01*
X84249Y165501D01*
X86250Y165501D01*
X86285Y165505D01*
X86321Y165502D01*
X86457Y165525D01*
X86593Y165541D01*
X86627Y165553D01*
X86662Y165558D01*
X86789Y165611D01*
X86919Y165658D01*
X86948Y165677D01*
X86981Y165691D01*
X87093Y165772D01*
X87208Y165847D01*
X87233Y165873D01*
X87261Y165893D01*
X87352Y165997D01*
X87447Y166097D01*
X87465Y166128D01*
X87488Y166154D01*
X87552Y166277D01*
X87622Y166395D01*
X87632Y166429D01*
X87649Y166461D01*
X87683Y166594D01*
X87724Y166726D01*
X87726Y166761D01*
X87735Y166795D01*
X87749Y167000D01*
X87749Y189500D01*
X87745Y189535D01*
X87748Y189571D01*
X87725Y189707D01*
X87709Y189843D01*
X87697Y189877D01*
X87692Y189912D01*
X87639Y190039D01*
X87592Y190169D01*
X87573Y190198D01*
X87559Y190231D01*
X87478Y190343D01*
X87403Y190458D01*
X87377Y190483D01*
X87357Y190511D01*
X87253Y190602D01*
X87153Y190697D01*
X87122Y190715D01*
X87096Y190738D01*
X86973Y190802D01*
X86855Y190872D01*
X86821Y190882D01*
X86789Y190899D01*
X86656Y190933D01*
X86524Y190974D01*
X86489Y190976D01*
X86455Y190985D01*
X86250Y190999D01*
X5500Y190999D01*
X5465Y190995D01*
X5429Y190998D01*
X5293Y190975D01*
X5157Y190959D01*
X5123Y190947D01*
X5088Y190942D01*
X4961Y190889D01*
X4831Y190842D01*
X4802Y190823D01*
X4769Y190809D01*
X4657Y190728D01*
X4542Y190653D01*
X4517Y190627D01*
X4489Y190607D01*
X4398Y190503D01*
X4303Y190403D01*
X4285Y190372D01*
X4262Y190346D01*
X4198Y190223D01*
X4128Y190105D01*
X4118Y190071D01*
X4101Y190039D01*
X4067Y189906D01*
X4026Y189774D01*
X4024Y189739D01*
X4015Y189705D01*
X4001Y189500D01*
X4001Y119450D01*
X4013Y119346D01*
X4015Y119242D01*
X4033Y119175D01*
X4041Y119106D01*
X4076Y119008D01*
X4102Y118907D01*
X4135Y118846D01*
X4158Y118781D01*
X4215Y118694D01*
X4264Y118601D01*
X4309Y118549D01*
X4347Y118491D01*
X4422Y118419D01*
X4491Y118341D01*
X4547Y118300D01*
X4597Y118253D01*
X4687Y118200D01*
X4772Y118139D01*
X4836Y118113D01*
X4895Y118078D01*
X4995Y118047D01*
X5091Y118007D01*
X5160Y117996D01*
X5226Y117976D01*
X5330Y117969D01*
X5433Y117952D01*
X5502Y117957D01*
X5571Y117952D01*
X5674Y117969D01*
X5778Y117976D01*
X5844Y117997D01*
X5912Y118008D01*
X6008Y118048D01*
X6108Y118079D01*
X6167Y118114D01*
X6231Y118141D01*
X6316Y118202D01*
X6406Y118255D01*
X6484Y118323D01*
X6511Y118343D01*
X6526Y118360D01*
X6560Y118390D01*
X6772Y118601D01*
X7228Y118864D01*
X7737Y119001D01*
X9501Y119001D01*
X9501Y114000D01*
X9505Y113965D01*
X9502Y113930D01*
X9525Y113794D01*
X9540Y113657D01*
X9552Y113624D01*
X9558Y113589D01*
X9611Y113461D01*
X9658Y113332D01*
X9677Y113302D01*
X9691Y113269D01*
X9771Y113158D01*
X9847Y113042D01*
X9872Y113018D01*
X9893Y112989D01*
X9997Y112898D01*
X10097Y112803D01*
X10127Y112786D01*
X10154Y112762D01*
X10277Y112698D01*
X10395Y112628D01*
X10429Y112618D01*
X10460Y112601D01*
X10594Y112567D01*
X10725Y112526D01*
X10761Y112524D01*
X10795Y112515D01*
X11000Y112501D01*
X11035Y112505D01*
G37*
G36*
X177035Y4005D02*
X177035Y4005D01*
X177071Y4002D01*
X177207Y4025D01*
X177343Y4041D01*
X177377Y4053D01*
X177412Y4058D01*
X177539Y4111D01*
X177669Y4158D01*
X177698Y4177D01*
X177731Y4191D01*
X177843Y4272D01*
X177958Y4347D01*
X177983Y4373D01*
X178011Y4393D01*
X178102Y4497D01*
X178197Y4597D01*
X178215Y4628D01*
X178238Y4654D01*
X178302Y4777D01*
X178372Y4895D01*
X178382Y4929D01*
X178399Y4961D01*
X178433Y5094D01*
X178474Y5226D01*
X178476Y5261D01*
X178485Y5295D01*
X178499Y5500D01*
X178499Y79843D01*
X178483Y79981D01*
X178473Y80121D01*
X178463Y80153D01*
X178459Y80187D01*
X178412Y80317D01*
X178371Y80451D01*
X178353Y80480D01*
X178342Y80512D01*
X178266Y80629D01*
X178195Y80749D01*
X178165Y80783D01*
X178153Y80801D01*
X178129Y80825D01*
X178060Y80903D01*
X176903Y82060D01*
X176794Y82147D01*
X176689Y82238D01*
X176659Y82254D01*
X176632Y82275D01*
X176506Y82334D01*
X176383Y82399D01*
X176350Y82407D01*
X176319Y82422D01*
X176183Y82450D01*
X176048Y82485D01*
X176003Y82488D01*
X175981Y82493D01*
X175947Y82492D01*
X175843Y82499D01*
X173000Y82499D01*
X172965Y82495D01*
X172929Y82498D01*
X172793Y82475D01*
X172657Y82459D01*
X172623Y82447D01*
X172588Y82442D01*
X172461Y82389D01*
X172331Y82342D01*
X172302Y82323D01*
X172269Y82309D01*
X172157Y82228D01*
X172042Y82153D01*
X172017Y82127D01*
X171989Y82107D01*
X171898Y82003D01*
X171803Y81903D01*
X171785Y81872D01*
X171762Y81846D01*
X171698Y81723D01*
X171628Y81605D01*
X171618Y81571D01*
X171601Y81539D01*
X171567Y81406D01*
X171526Y81274D01*
X171524Y81239D01*
X171515Y81205D01*
X171501Y81000D01*
X171501Y80499D01*
X166500Y80499D01*
X166465Y80495D01*
X166430Y80498D01*
X166294Y80475D01*
X166157Y80460D01*
X166124Y80447D01*
X166089Y80442D01*
X165961Y80389D01*
X165832Y80342D01*
X165802Y80323D01*
X165769Y80309D01*
X165658Y80229D01*
X165542Y80153D01*
X165518Y80127D01*
X165489Y80107D01*
X165488Y80106D01*
X165398Y80002D01*
X165303Y79903D01*
X165285Y79872D01*
X165262Y79845D01*
X165198Y79723D01*
X165128Y79604D01*
X165118Y79571D01*
X165101Y79539D01*
X165067Y79406D01*
X165026Y79274D01*
X165023Y79239D01*
X165015Y79204D01*
X165001Y79000D01*
X165001Y73999D01*
X163237Y73999D01*
X162728Y74136D01*
X162271Y74399D01*
X161847Y74824D01*
X161822Y74853D01*
X161753Y74945D01*
X161708Y74983D01*
X161670Y75027D01*
X161576Y75094D01*
X161489Y75168D01*
X161437Y75194D01*
X161389Y75229D01*
X161283Y75272D01*
X161181Y75324D01*
X161124Y75338D01*
X161069Y75361D01*
X160956Y75379D01*
X160845Y75406D01*
X160786Y75406D01*
X160728Y75416D01*
X160613Y75408D01*
X160499Y75409D01*
X160442Y75396D01*
X160383Y75391D01*
X160273Y75357D01*
X160162Y75332D01*
X160109Y75306D01*
X160053Y75289D01*
X159954Y75230D01*
X159851Y75180D01*
X159806Y75143D01*
X159755Y75113D01*
X159600Y74978D01*
X159122Y74499D01*
X157303Y74499D01*
X157200Y74487D01*
X157095Y74485D01*
X157028Y74467D01*
X156960Y74459D01*
X156862Y74424D01*
X156761Y74398D01*
X156700Y74365D01*
X156635Y74342D01*
X156547Y74285D01*
X156455Y74236D01*
X156403Y74191D01*
X156345Y74153D01*
X156273Y74078D01*
X156194Y74009D01*
X156154Y73953D01*
X156106Y73903D01*
X156054Y73813D01*
X155993Y73728D01*
X155966Y73664D01*
X155931Y73605D01*
X155901Y73505D01*
X155861Y73409D01*
X155850Y73340D01*
X155829Y73274D01*
X155822Y73170D01*
X155805Y73067D01*
X155810Y72998D01*
X155806Y72929D01*
X155823Y72827D01*
X155830Y72722D01*
X155850Y72656D01*
X155862Y72588D01*
X155902Y72492D01*
X155933Y72392D01*
X155968Y72333D01*
X155994Y72269D01*
X156055Y72184D01*
X156108Y72095D01*
X156177Y72016D01*
X156197Y71989D01*
X156213Y71974D01*
X156243Y71940D01*
X161493Y66690D01*
X163251Y64932D01*
X163251Y5500D01*
X163255Y5465D01*
X163252Y5429D01*
X163275Y5293D01*
X163291Y5157D01*
X163303Y5123D01*
X163308Y5088D01*
X163361Y4961D01*
X163408Y4831D01*
X163427Y4802D01*
X163441Y4769D01*
X163522Y4657D01*
X163597Y4542D01*
X163623Y4517D01*
X163643Y4489D01*
X163747Y4398D01*
X163847Y4303D01*
X163878Y4285D01*
X163904Y4262D01*
X164027Y4198D01*
X164145Y4128D01*
X164179Y4118D01*
X164211Y4101D01*
X164344Y4067D01*
X164476Y4026D01*
X164511Y4024D01*
X164545Y4015D01*
X164750Y4001D01*
X177000Y4001D01*
X177035Y4005D01*
G37*
G36*
X78785Y4005D02*
X78785Y4005D01*
X78821Y4002D01*
X78957Y4025D01*
X79093Y4041D01*
X79127Y4053D01*
X79162Y4058D01*
X79289Y4111D01*
X79419Y4158D01*
X79448Y4177D01*
X79481Y4191D01*
X79593Y4272D01*
X79708Y4347D01*
X79733Y4373D01*
X79761Y4393D01*
X79852Y4497D01*
X79947Y4597D01*
X79965Y4628D01*
X79988Y4654D01*
X80052Y4777D01*
X80122Y4895D01*
X80132Y4929D01*
X80149Y4961D01*
X80183Y5094D01*
X80224Y5226D01*
X80226Y5261D01*
X80235Y5295D01*
X80249Y5500D01*
X80249Y15250D01*
X80245Y15285D01*
X80248Y15321D01*
X80225Y15457D01*
X80209Y15593D01*
X80197Y15627D01*
X80192Y15662D01*
X80139Y15789D01*
X80092Y15919D01*
X80073Y15948D01*
X80059Y15981D01*
X79978Y16093D01*
X79903Y16208D01*
X79877Y16233D01*
X79857Y16261D01*
X79753Y16352D01*
X79653Y16447D01*
X79622Y16465D01*
X79596Y16488D01*
X79473Y16552D01*
X79355Y16622D01*
X79321Y16632D01*
X79289Y16649D01*
X79156Y16683D01*
X79024Y16724D01*
X78989Y16726D01*
X78955Y16735D01*
X78750Y16749D01*
X78249Y16749D01*
X78249Y23250D01*
X78245Y23285D01*
X78248Y23320D01*
X78225Y23456D01*
X78209Y23593D01*
X78197Y23627D01*
X78192Y23662D01*
X78139Y23789D01*
X78092Y23918D01*
X78073Y23948D01*
X78059Y23981D01*
X77979Y24092D01*
X77903Y24208D01*
X77877Y24232D01*
X77857Y24261D01*
X77753Y24352D01*
X77653Y24447D01*
X77622Y24465D01*
X77596Y24488D01*
X77473Y24552D01*
X77355Y24622D01*
X77321Y24632D01*
X77289Y24649D01*
X77156Y24683D01*
X77024Y24724D01*
X76989Y24726D01*
X76955Y24735D01*
X76750Y24749D01*
X76749Y24749D01*
X76749Y24750D01*
X76745Y24785D01*
X76747Y24821D01*
X76725Y24957D01*
X76709Y25093D01*
X76697Y25127D01*
X76691Y25162D01*
X76639Y25289D01*
X76592Y25419D01*
X76572Y25448D01*
X76559Y25481D01*
X76478Y25593D01*
X76403Y25708D01*
X76377Y25733D01*
X76356Y25761D01*
X76252Y25852D01*
X76153Y25947D01*
X76122Y25965D01*
X76095Y25988D01*
X75973Y26052D01*
X75855Y26122D01*
X75821Y26132D01*
X75789Y26149D01*
X75656Y26183D01*
X75524Y26224D01*
X75489Y26226D01*
X75454Y26235D01*
X75250Y26249D01*
X62750Y26249D01*
X62715Y26245D01*
X62680Y26248D01*
X62544Y26225D01*
X62407Y26209D01*
X62373Y26197D01*
X62338Y26192D01*
X62211Y26139D01*
X62082Y26092D01*
X62052Y26073D01*
X62019Y26059D01*
X61907Y25978D01*
X61792Y25903D01*
X61768Y25877D01*
X61739Y25857D01*
X61648Y25753D01*
X61553Y25653D01*
X61535Y25622D01*
X61512Y25596D01*
X61448Y25473D01*
X61378Y25355D01*
X61368Y25321D01*
X61351Y25289D01*
X61317Y25156D01*
X61276Y25024D01*
X61274Y24989D01*
X61265Y24955D01*
X61251Y24750D01*
X61251Y24749D01*
X61250Y24749D01*
X61215Y24745D01*
X61179Y24747D01*
X61043Y24725D01*
X60907Y24709D01*
X60873Y24697D01*
X60838Y24691D01*
X60711Y24639D01*
X60581Y24592D01*
X60552Y24572D01*
X60519Y24559D01*
X60407Y24478D01*
X60292Y24403D01*
X60267Y24377D01*
X60239Y24356D01*
X60148Y24252D01*
X60053Y24153D01*
X60035Y24122D01*
X60012Y24095D01*
X59948Y23973D01*
X59878Y23855D01*
X59868Y23821D01*
X59851Y23789D01*
X59817Y23655D01*
X59776Y23524D01*
X59774Y23489D01*
X59765Y23454D01*
X59751Y23250D01*
X59751Y16749D01*
X57237Y16749D01*
X56728Y16886D01*
X56271Y17149D01*
X55899Y17521D01*
X55635Y17979D01*
X55631Y17984D01*
X55629Y17989D01*
X55528Y18122D01*
X55429Y18256D01*
X55424Y18260D01*
X55420Y18265D01*
X55292Y18372D01*
X55165Y18479D01*
X55159Y18482D01*
X55154Y18486D01*
X55005Y18560D01*
X54856Y18636D01*
X54850Y18637D01*
X54845Y18640D01*
X54682Y18678D01*
X54520Y18717D01*
X54514Y18717D01*
X54508Y18719D01*
X54342Y18718D01*
X54174Y18720D01*
X54168Y18718D01*
X54162Y18718D01*
X53999Y18680D01*
X53837Y18643D01*
X53832Y18640D01*
X53826Y18639D01*
X53676Y18564D01*
X53527Y18491D01*
X53522Y18487D01*
X53516Y18484D01*
X53389Y18378D01*
X53259Y18272D01*
X53255Y18267D01*
X53251Y18263D01*
X53151Y18130D01*
X53049Y17997D01*
X53047Y17992D01*
X53043Y17987D01*
X52952Y17803D01*
X52267Y16149D01*
X50851Y14733D01*
X49001Y13967D01*
X46999Y13967D01*
X45149Y14733D01*
X43733Y16149D01*
X42967Y17999D01*
X42967Y20001D01*
X43770Y21939D01*
X43787Y21961D01*
X43831Y22055D01*
X43884Y22145D01*
X43905Y22211D01*
X43934Y22273D01*
X43955Y22376D01*
X43986Y22476D01*
X43991Y22544D01*
X44005Y22612D01*
X44003Y22716D01*
X44010Y22821D01*
X43999Y22889D01*
X43997Y22957D01*
X43971Y23059D01*
X43954Y23162D01*
X43928Y23225D01*
X43910Y23292D01*
X43861Y23385D01*
X43821Y23481D01*
X43781Y23537D01*
X43749Y23598D01*
X43680Y23677D01*
X43619Y23761D01*
X43567Y23807D01*
X43522Y23859D01*
X43437Y23919D01*
X43358Y23988D01*
X43297Y24020D01*
X43241Y24060D01*
X43145Y24100D01*
X43052Y24149D01*
X42985Y24166D01*
X42945Y24183D01*
X42400Y24728D01*
X42354Y24765D01*
X42314Y24808D01*
X42218Y24872D01*
X42129Y24943D01*
X42075Y24968D01*
X42027Y25000D01*
X41919Y25041D01*
X41816Y25090D01*
X41758Y25102D01*
X41703Y25122D01*
X41589Y25137D01*
X41477Y25161D01*
X41418Y25160D01*
X41360Y25167D01*
X41246Y25155D01*
X41132Y25153D01*
X41075Y25138D01*
X41016Y25132D01*
X40908Y25095D01*
X40797Y25066D01*
X40745Y25038D01*
X40690Y25019D01*
X40593Y24958D01*
X40491Y24904D01*
X40447Y24866D01*
X40397Y24834D01*
X40317Y24752D01*
X40231Y24677D01*
X40196Y24629D01*
X40155Y24587D01*
X40131Y24552D01*
X39729Y24149D01*
X39272Y23886D01*
X38763Y23749D01*
X36249Y23749D01*
X36249Y30250D01*
X36245Y30285D01*
X36248Y30320D01*
X36225Y30456D01*
X36209Y30593D01*
X36197Y30627D01*
X36192Y30662D01*
X36139Y30789D01*
X36092Y30918D01*
X36073Y30948D01*
X36059Y30981D01*
X35978Y31093D01*
X35903Y31208D01*
X35877Y31232D01*
X35857Y31261D01*
X35753Y31352D01*
X35653Y31447D01*
X35622Y31465D01*
X35596Y31488D01*
X35473Y31552D01*
X35355Y31622D01*
X35321Y31632D01*
X35289Y31649D01*
X35156Y31683D01*
X35024Y31724D01*
X34989Y31726D01*
X34955Y31735D01*
X34750Y31749D01*
X33250Y31749D01*
X33215Y31745D01*
X33179Y31747D01*
X33043Y31725D01*
X32907Y31709D01*
X32873Y31697D01*
X32838Y31691D01*
X32711Y31639D01*
X32581Y31592D01*
X32552Y31572D01*
X32519Y31559D01*
X32407Y31478D01*
X32292Y31403D01*
X32267Y31377D01*
X32239Y31356D01*
X32148Y31252D01*
X32053Y31153D01*
X32035Y31122D01*
X32012Y31095D01*
X31948Y30973D01*
X31878Y30855D01*
X31868Y30821D01*
X31851Y30789D01*
X31817Y30656D01*
X31776Y30524D01*
X31774Y30489D01*
X31765Y30454D01*
X31751Y30250D01*
X31751Y23749D01*
X30250Y23749D01*
X30215Y23745D01*
X30179Y23748D01*
X30043Y23725D01*
X29907Y23709D01*
X29873Y23697D01*
X29838Y23692D01*
X29711Y23639D01*
X29581Y23592D01*
X29552Y23573D01*
X29519Y23559D01*
X29407Y23478D01*
X29292Y23403D01*
X29267Y23377D01*
X29239Y23357D01*
X29148Y23253D01*
X29053Y23153D01*
X29035Y23122D01*
X29012Y23096D01*
X28948Y22973D01*
X28878Y22855D01*
X28868Y22821D01*
X28851Y22789D01*
X28817Y22656D01*
X28776Y22524D01*
X28774Y22489D01*
X28765Y22455D01*
X28751Y22250D01*
X28751Y5500D01*
X28755Y5465D01*
X28752Y5429D01*
X28775Y5293D01*
X28791Y5157D01*
X28803Y5123D01*
X28808Y5088D01*
X28861Y4961D01*
X28908Y4831D01*
X28927Y4802D01*
X28941Y4769D01*
X29022Y4657D01*
X29097Y4542D01*
X29123Y4517D01*
X29143Y4489D01*
X29247Y4398D01*
X29347Y4303D01*
X29378Y4285D01*
X29404Y4262D01*
X29527Y4198D01*
X29645Y4128D01*
X29679Y4118D01*
X29711Y4101D01*
X29844Y4067D01*
X29976Y4026D01*
X30011Y4024D01*
X30045Y4015D01*
X30250Y4001D01*
X78750Y4001D01*
X78785Y4005D01*
G37*
G36*
X21785Y4005D02*
X21785Y4005D01*
X21821Y4002D01*
X21957Y4025D01*
X22093Y4041D01*
X22127Y4053D01*
X22162Y4058D01*
X22289Y4111D01*
X22419Y4158D01*
X22448Y4177D01*
X22481Y4191D01*
X22593Y4272D01*
X22708Y4347D01*
X22733Y4373D01*
X22761Y4393D01*
X22852Y4497D01*
X22947Y4597D01*
X22965Y4628D01*
X22988Y4654D01*
X23052Y4777D01*
X23122Y4895D01*
X23132Y4929D01*
X23149Y4961D01*
X23183Y5094D01*
X23224Y5226D01*
X23226Y5261D01*
X23235Y5295D01*
X23249Y5500D01*
X23249Y22250D01*
X23245Y22285D01*
X23248Y22321D01*
X23225Y22457D01*
X23209Y22593D01*
X23197Y22627D01*
X23192Y22662D01*
X23139Y22789D01*
X23092Y22919D01*
X23073Y22948D01*
X23059Y22981D01*
X22978Y23093D01*
X22903Y23208D01*
X22877Y23233D01*
X22857Y23261D01*
X22753Y23352D01*
X22653Y23447D01*
X22622Y23465D01*
X22596Y23488D01*
X22473Y23552D01*
X22355Y23622D01*
X22321Y23632D01*
X22289Y23649D01*
X22156Y23683D01*
X22024Y23724D01*
X21989Y23726D01*
X21955Y23735D01*
X21750Y23749D01*
X20249Y23749D01*
X20249Y30250D01*
X20245Y30285D01*
X20248Y30320D01*
X20225Y30456D01*
X20209Y30593D01*
X20197Y30627D01*
X20192Y30662D01*
X20139Y30789D01*
X20092Y30918D01*
X20073Y30948D01*
X20059Y30981D01*
X19978Y31093D01*
X19903Y31208D01*
X19877Y31232D01*
X19857Y31261D01*
X19753Y31352D01*
X19653Y31447D01*
X19622Y31465D01*
X19596Y31488D01*
X19473Y31552D01*
X19355Y31622D01*
X19321Y31632D01*
X19289Y31649D01*
X19156Y31683D01*
X19024Y31724D01*
X18989Y31726D01*
X18955Y31735D01*
X18750Y31749D01*
X18749Y31749D01*
X18749Y31750D01*
X18745Y31785D01*
X18747Y31821D01*
X18725Y31957D01*
X18709Y32093D01*
X18697Y32127D01*
X18691Y32162D01*
X18639Y32289D01*
X18592Y32419D01*
X18572Y32448D01*
X18559Y32481D01*
X18478Y32593D01*
X18403Y32708D01*
X18377Y32733D01*
X18356Y32761D01*
X18252Y32852D01*
X18153Y32947D01*
X18122Y32965D01*
X18095Y32988D01*
X17973Y33052D01*
X17855Y33122D01*
X17821Y33132D01*
X17789Y33149D01*
X17656Y33183D01*
X17524Y33224D01*
X17489Y33226D01*
X17454Y33235D01*
X17250Y33249D01*
X11499Y33249D01*
X11499Y36513D01*
X11636Y37022D01*
X11899Y37479D01*
X12271Y37851D01*
X12485Y37974D01*
X12532Y38009D01*
X12583Y38036D01*
X12670Y38112D01*
X12762Y38180D01*
X12800Y38225D01*
X12844Y38263D01*
X12911Y38357D01*
X12985Y38444D01*
X13011Y38497D01*
X13046Y38544D01*
X13089Y38651D01*
X13141Y38753D01*
X13155Y38810D01*
X13177Y38864D01*
X13196Y38977D01*
X13223Y39089D01*
X13223Y39147D01*
X13233Y39205D01*
X13225Y39320D01*
X13225Y39435D01*
X13212Y39492D01*
X13208Y39550D01*
X13174Y39660D01*
X13149Y39772D01*
X13123Y39824D01*
X13106Y39880D01*
X13047Y39979D01*
X12997Y40082D01*
X12960Y40128D01*
X12930Y40178D01*
X12795Y40333D01*
X11999Y41128D01*
X11999Y41965D01*
X11981Y42120D01*
X11967Y42276D01*
X11961Y42292D01*
X11959Y42309D01*
X11906Y42456D01*
X11857Y42604D01*
X11848Y42618D01*
X11842Y42634D01*
X11756Y42765D01*
X11674Y42897D01*
X11662Y42909D01*
X11653Y42924D01*
X11540Y43031D01*
X11430Y43142D01*
X11415Y43151D01*
X11403Y43162D01*
X11268Y43241D01*
X11135Y43323D01*
X11119Y43329D01*
X11105Y43337D01*
X10956Y43383D01*
X10807Y43433D01*
X10791Y43434D01*
X10774Y43439D01*
X10618Y43450D01*
X10463Y43464D01*
X10446Y43462D01*
X10429Y43463D01*
X10275Y43438D01*
X10121Y43416D01*
X10100Y43409D01*
X10088Y43407D01*
X10063Y43396D01*
X9926Y43351D01*
X9001Y42967D01*
X6999Y42967D01*
X6074Y43351D01*
X5923Y43393D01*
X5774Y43439D01*
X5757Y43440D01*
X5741Y43445D01*
X5586Y43452D01*
X5429Y43463D01*
X5413Y43460D01*
X5396Y43461D01*
X5242Y43432D01*
X5088Y43407D01*
X5073Y43401D01*
X5056Y43397D01*
X4912Y43334D01*
X4769Y43274D01*
X4755Y43265D01*
X4740Y43258D01*
X4615Y43163D01*
X4489Y43072D01*
X4477Y43059D01*
X4464Y43049D01*
X4364Y42929D01*
X4262Y42811D01*
X4254Y42796D01*
X4243Y42783D01*
X4174Y42643D01*
X4101Y42505D01*
X4097Y42488D01*
X4089Y42473D01*
X4054Y42321D01*
X4015Y42170D01*
X4013Y42148D01*
X4011Y42137D01*
X4011Y42109D01*
X4001Y41965D01*
X4001Y5500D01*
X4005Y5465D01*
X4002Y5429D01*
X4025Y5293D01*
X4041Y5157D01*
X4053Y5123D01*
X4058Y5088D01*
X4111Y4961D01*
X4158Y4831D01*
X4177Y4802D01*
X4191Y4769D01*
X4272Y4657D01*
X4347Y4542D01*
X4373Y4517D01*
X4393Y4489D01*
X4497Y4398D01*
X4597Y4303D01*
X4628Y4285D01*
X4654Y4262D01*
X4777Y4198D01*
X4895Y4128D01*
X4929Y4118D01*
X4961Y4101D01*
X5094Y4067D01*
X5226Y4026D01*
X5261Y4024D01*
X5295Y4015D01*
X5500Y4001D01*
X21750Y4001D01*
X21785Y4005D01*
G37*
G36*
X145285Y4005D02*
X145285Y4005D01*
X145321Y4002D01*
X145457Y4025D01*
X145593Y4041D01*
X145627Y4053D01*
X145662Y4058D01*
X145789Y4111D01*
X145919Y4158D01*
X145948Y4177D01*
X145981Y4191D01*
X146093Y4272D01*
X146208Y4347D01*
X146233Y4373D01*
X146261Y4393D01*
X146352Y4497D01*
X146447Y4597D01*
X146465Y4628D01*
X146488Y4654D01*
X146552Y4777D01*
X146622Y4895D01*
X146632Y4929D01*
X146649Y4961D01*
X146683Y5094D01*
X146724Y5226D01*
X146726Y5261D01*
X146735Y5295D01*
X146749Y5500D01*
X146749Y42276D01*
X146731Y42431D01*
X146717Y42587D01*
X146711Y42603D01*
X146709Y42619D01*
X146656Y42766D01*
X146607Y42914D01*
X146598Y42929D01*
X146592Y42945D01*
X146507Y43075D01*
X146424Y43208D01*
X146412Y43220D01*
X146403Y43234D01*
X146290Y43342D01*
X146180Y43452D01*
X146165Y43461D01*
X146153Y43473D01*
X146019Y43552D01*
X145885Y43634D01*
X145869Y43639D01*
X145855Y43648D01*
X145706Y43694D01*
X145557Y43743D01*
X145541Y43745D01*
X145524Y43750D01*
X145368Y43761D01*
X145213Y43775D01*
X145196Y43772D01*
X145179Y43774D01*
X145025Y43748D01*
X144871Y43727D01*
X144850Y43720D01*
X144838Y43718D01*
X144813Y43707D01*
X144676Y43661D01*
X143001Y42967D01*
X140701Y42967D01*
X140671Y42964D01*
X140591Y42968D01*
X140560Y42962D01*
X140529Y42962D01*
X140397Y42932D01*
X140357Y42927D01*
X140340Y42921D01*
X140251Y42905D01*
X140222Y42892D01*
X140192Y42885D01*
X140065Y42823D01*
X140049Y42816D01*
X140032Y42810D01*
X140026Y42806D01*
X139934Y42766D01*
X139909Y42747D01*
X139882Y42733D01*
X139772Y42643D01*
X139658Y42558D01*
X139638Y42534D01*
X139614Y42514D01*
X139528Y42401D01*
X139437Y42292D01*
X139423Y42264D01*
X139404Y42240D01*
X139346Y42110D01*
X139282Y41983D01*
X139275Y41953D01*
X139262Y41924D01*
X139235Y41784D01*
X139203Y41646D01*
X139203Y41615D01*
X139197Y41585D01*
X139202Y41443D01*
X139202Y41300D01*
X139209Y41270D01*
X139211Y41240D01*
X139249Y41103D01*
X139258Y41061D01*
X139259Y41056D01*
X139260Y41054D01*
X139281Y40964D01*
X139295Y40936D01*
X139303Y40906D01*
X139359Y40792D01*
X139501Y40263D01*
X139501Y38499D01*
X134500Y38499D01*
X134465Y38495D01*
X134430Y38498D01*
X134294Y38475D01*
X134157Y38460D01*
X134124Y38447D01*
X134089Y38442D01*
X133961Y38389D01*
X133832Y38342D01*
X133802Y38323D01*
X133769Y38309D01*
X133658Y38229D01*
X133542Y38153D01*
X133518Y38127D01*
X133489Y38107D01*
X133489Y38106D01*
X133488Y38106D01*
X133398Y38002D01*
X133303Y37903D01*
X133285Y37872D01*
X133262Y37845D01*
X133198Y37723D01*
X133128Y37604D01*
X133118Y37571D01*
X133101Y37539D01*
X133067Y37406D01*
X133026Y37274D01*
X133023Y37239D01*
X133015Y37204D01*
X133001Y37000D01*
X133001Y31999D01*
X132750Y31999D01*
X132715Y31995D01*
X132679Y31998D01*
X132543Y31975D01*
X132407Y31959D01*
X132373Y31947D01*
X132338Y31942D01*
X132211Y31889D01*
X132081Y31842D01*
X132052Y31823D01*
X132019Y31809D01*
X131907Y31728D01*
X131792Y31653D01*
X131767Y31627D01*
X131739Y31607D01*
X131648Y31503D01*
X131553Y31403D01*
X131535Y31372D01*
X131512Y31346D01*
X131448Y31223D01*
X131378Y31105D01*
X131368Y31071D01*
X131351Y31039D01*
X131317Y30906D01*
X131276Y30774D01*
X131274Y30739D01*
X131265Y30705D01*
X131251Y30500D01*
X131251Y5500D01*
X131255Y5465D01*
X131252Y5429D01*
X131275Y5293D01*
X131291Y5157D01*
X131303Y5123D01*
X131308Y5088D01*
X131361Y4961D01*
X131408Y4831D01*
X131427Y4802D01*
X131441Y4769D01*
X131522Y4657D01*
X131597Y4542D01*
X131623Y4517D01*
X131643Y4489D01*
X131747Y4398D01*
X131847Y4303D01*
X131878Y4285D01*
X131904Y4262D01*
X132027Y4198D01*
X132145Y4128D01*
X132179Y4118D01*
X132211Y4101D01*
X132344Y4067D01*
X132476Y4026D01*
X132511Y4024D01*
X132545Y4015D01*
X132750Y4001D01*
X145250Y4001D01*
X145285Y4005D01*
G37*
G36*
X116285Y4005D02*
X116285Y4005D01*
X116321Y4002D01*
X116457Y4025D01*
X116593Y4041D01*
X116627Y4053D01*
X116662Y4058D01*
X116789Y4111D01*
X116919Y4158D01*
X116948Y4177D01*
X116981Y4191D01*
X117093Y4272D01*
X117208Y4347D01*
X117233Y4373D01*
X117261Y4393D01*
X117352Y4497D01*
X117447Y4597D01*
X117465Y4628D01*
X117488Y4654D01*
X117552Y4777D01*
X117622Y4895D01*
X117632Y4929D01*
X117649Y4961D01*
X117683Y5094D01*
X117724Y5226D01*
X117726Y5261D01*
X117735Y5295D01*
X117749Y5500D01*
X117749Y41862D01*
X117731Y42017D01*
X117717Y42172D01*
X117711Y42188D01*
X117709Y42205D01*
X117656Y42352D01*
X117607Y42500D01*
X117598Y42514D01*
X117592Y42530D01*
X117506Y42662D01*
X117424Y42794D01*
X117412Y42806D01*
X117403Y42820D01*
X117291Y42927D01*
X117180Y43038D01*
X117165Y43047D01*
X117153Y43059D01*
X117018Y43138D01*
X116885Y43220D01*
X116869Y43225D01*
X116855Y43234D01*
X116706Y43280D01*
X116557Y43329D01*
X116541Y43331D01*
X116524Y43336D01*
X116368Y43346D01*
X116213Y43361D01*
X116196Y43358D01*
X116179Y43359D01*
X116025Y43334D01*
X115871Y43312D01*
X115850Y43305D01*
X115838Y43303D01*
X115813Y43293D01*
X115676Y43247D01*
X115001Y42967D01*
X112701Y42967D01*
X112671Y42964D01*
X112591Y42968D01*
X112560Y42962D01*
X112529Y42962D01*
X112397Y42932D01*
X112357Y42927D01*
X112340Y42921D01*
X112251Y42905D01*
X112222Y42892D01*
X112192Y42885D01*
X112065Y42823D01*
X112049Y42816D01*
X112032Y42810D01*
X112026Y42806D01*
X111934Y42766D01*
X111909Y42747D01*
X111882Y42733D01*
X111772Y42643D01*
X111658Y42558D01*
X111638Y42534D01*
X111614Y42514D01*
X111528Y42401D01*
X111437Y42292D01*
X111423Y42264D01*
X111404Y42240D01*
X111346Y42110D01*
X111282Y41983D01*
X111275Y41953D01*
X111262Y41924D01*
X111235Y41784D01*
X111203Y41646D01*
X111203Y41615D01*
X111197Y41585D01*
X111202Y41443D01*
X111202Y41300D01*
X111209Y41270D01*
X111211Y41240D01*
X111249Y41103D01*
X111258Y41061D01*
X111259Y41056D01*
X111260Y41054D01*
X111281Y40964D01*
X111295Y40936D01*
X111303Y40906D01*
X111359Y40792D01*
X111501Y40263D01*
X111501Y38499D01*
X106500Y38499D01*
X106465Y38495D01*
X106430Y38498D01*
X106294Y38475D01*
X106157Y38460D01*
X106124Y38447D01*
X106089Y38442D01*
X105961Y38389D01*
X105832Y38342D01*
X105802Y38323D01*
X105769Y38309D01*
X105658Y38229D01*
X105542Y38153D01*
X105518Y38127D01*
X105489Y38107D01*
X105489Y38106D01*
X105488Y38106D01*
X105398Y38002D01*
X105303Y37903D01*
X105285Y37872D01*
X105262Y37845D01*
X105198Y37723D01*
X105128Y37604D01*
X105118Y37571D01*
X105101Y37539D01*
X105067Y37406D01*
X105026Y37274D01*
X105023Y37239D01*
X105015Y37204D01*
X105001Y37000D01*
X105001Y31999D01*
X103750Y31999D01*
X103715Y31995D01*
X103679Y31998D01*
X103543Y31975D01*
X103407Y31959D01*
X103373Y31947D01*
X103338Y31942D01*
X103211Y31889D01*
X103081Y31842D01*
X103052Y31823D01*
X103019Y31809D01*
X102907Y31728D01*
X102792Y31653D01*
X102767Y31627D01*
X102739Y31607D01*
X102648Y31503D01*
X102553Y31403D01*
X102535Y31372D01*
X102512Y31346D01*
X102448Y31223D01*
X102378Y31105D01*
X102368Y31071D01*
X102351Y31039D01*
X102317Y30906D01*
X102276Y30774D01*
X102274Y30739D01*
X102265Y30705D01*
X102251Y30500D01*
X102251Y5500D01*
X102255Y5465D01*
X102252Y5429D01*
X102275Y5293D01*
X102291Y5157D01*
X102303Y5123D01*
X102308Y5088D01*
X102361Y4961D01*
X102408Y4831D01*
X102427Y4802D01*
X102441Y4769D01*
X102522Y4657D01*
X102597Y4542D01*
X102623Y4517D01*
X102643Y4489D01*
X102747Y4398D01*
X102847Y4303D01*
X102878Y4285D01*
X102904Y4262D01*
X103027Y4198D01*
X103145Y4128D01*
X103179Y4118D01*
X103211Y4101D01*
X103344Y4067D01*
X103476Y4026D01*
X103511Y4024D01*
X103545Y4015D01*
X103750Y4001D01*
X116250Y4001D01*
X116285Y4005D01*
G37*
G36*
X28404Y84263D02*
X28404Y84263D01*
X28508Y84265D01*
X28575Y84283D01*
X28644Y84291D01*
X28742Y84326D01*
X28843Y84352D01*
X28904Y84385D01*
X28969Y84408D01*
X29056Y84465D01*
X29149Y84514D01*
X29201Y84559D01*
X29259Y84597D01*
X29330Y84672D01*
X29409Y84741D01*
X29449Y84797D01*
X29497Y84847D01*
X29550Y84937D01*
X29611Y85022D01*
X29637Y85086D01*
X29672Y85145D01*
X29703Y85245D01*
X29743Y85341D01*
X29754Y85410D01*
X29774Y85476D01*
X29781Y85580D01*
X29798Y85683D01*
X29793Y85752D01*
X29798Y85821D01*
X29781Y85923D01*
X29774Y86028D01*
X29753Y86094D01*
X29742Y86162D01*
X29702Y86258D01*
X29671Y86358D01*
X29636Y86417D01*
X29609Y86481D01*
X29548Y86566D01*
X29495Y86655D01*
X29427Y86734D01*
X29407Y86761D01*
X29390Y86776D01*
X29360Y86810D01*
X28899Y87271D01*
X28636Y87728D01*
X28499Y88237D01*
X28499Y90001D01*
X33500Y90001D01*
X33535Y90005D01*
X33570Y90002D01*
X33706Y90025D01*
X33843Y90040D01*
X33876Y90052D01*
X33911Y90058D01*
X34039Y90111D01*
X34168Y90158D01*
X34198Y90177D01*
X34231Y90191D01*
X34342Y90271D01*
X34458Y90347D01*
X34482Y90372D01*
X34511Y90393D01*
X34511Y90394D01*
X34512Y90394D01*
X34602Y90498D01*
X34697Y90597D01*
X34715Y90628D01*
X34738Y90655D01*
X34802Y90777D01*
X34872Y90896D01*
X34882Y90929D01*
X34899Y90961D01*
X34933Y91094D01*
X34974Y91226D01*
X34977Y91261D01*
X34985Y91296D01*
X34999Y91500D01*
X34999Y96501D01*
X36763Y96501D01*
X37272Y96364D01*
X37729Y96101D01*
X38153Y95676D01*
X38178Y95647D01*
X38247Y95555D01*
X38292Y95517D01*
X38330Y95473D01*
X38424Y95406D01*
X38511Y95332D01*
X38563Y95306D01*
X38611Y95271D01*
X38717Y95228D01*
X38819Y95176D01*
X38876Y95162D01*
X38931Y95139D01*
X39044Y95121D01*
X39155Y95094D01*
X39214Y95094D01*
X39272Y95084D01*
X39387Y95092D01*
X39501Y95091D01*
X39558Y95104D01*
X39617Y95109D01*
X39727Y95143D01*
X39838Y95168D01*
X39891Y95194D01*
X39947Y95211D01*
X40046Y95270D01*
X40149Y95320D01*
X40194Y95357D01*
X40245Y95387D01*
X40400Y95522D01*
X40878Y96001D01*
X41757Y96001D01*
X41861Y96013D01*
X41965Y96015D01*
X42032Y96033D01*
X42101Y96041D01*
X42199Y96076D01*
X42300Y96102D01*
X42361Y96135D01*
X42426Y96158D01*
X42513Y96215D01*
X42606Y96264D01*
X42658Y96309D01*
X42716Y96347D01*
X42788Y96422D01*
X42866Y96491D01*
X42907Y96547D01*
X42954Y96597D01*
X43007Y96687D01*
X43068Y96772D01*
X43094Y96836D01*
X43129Y96895D01*
X43160Y96995D01*
X43200Y97091D01*
X43211Y97160D01*
X43231Y97226D01*
X43238Y97330D01*
X43255Y97433D01*
X43250Y97502D01*
X43255Y97571D01*
X43238Y97673D01*
X43231Y97778D01*
X43210Y97843D01*
X43199Y97912D01*
X43159Y98008D01*
X43128Y98108D01*
X43093Y98167D01*
X43066Y98231D01*
X43005Y98316D01*
X42952Y98405D01*
X42884Y98484D01*
X42864Y98511D01*
X42847Y98526D01*
X42818Y98560D01*
X42499Y98878D01*
X42499Y116250D01*
X42495Y116285D01*
X42498Y116321D01*
X42475Y116457D01*
X42459Y116593D01*
X42447Y116627D01*
X42442Y116662D01*
X42389Y116789D01*
X42342Y116919D01*
X42323Y116948D01*
X42309Y116981D01*
X42228Y117093D01*
X42153Y117208D01*
X42127Y117233D01*
X42107Y117261D01*
X42003Y117352D01*
X41903Y117447D01*
X41872Y117465D01*
X41846Y117488D01*
X41723Y117552D01*
X41605Y117622D01*
X41571Y117632D01*
X41539Y117649D01*
X41406Y117683D01*
X41274Y117724D01*
X41239Y117726D01*
X41205Y117735D01*
X41000Y117749D01*
X33553Y117749D01*
X33415Y117733D01*
X33276Y117723D01*
X33243Y117713D01*
X33210Y117709D01*
X33079Y117662D01*
X32946Y117621D01*
X32916Y117603D01*
X32885Y117592D01*
X32768Y117516D01*
X32648Y117445D01*
X32614Y117415D01*
X32595Y117403D01*
X32572Y117379D01*
X32493Y117310D01*
X30940Y115757D01*
X30853Y115648D01*
X30762Y115542D01*
X30746Y115512D01*
X30725Y115486D01*
X30666Y115360D01*
X30601Y115236D01*
X30593Y115203D01*
X30578Y115173D01*
X30550Y115037D01*
X30515Y114901D01*
X30512Y114856D01*
X30507Y114835D01*
X30508Y114801D01*
X30501Y114697D01*
X30501Y98831D01*
X30468Y98789D01*
X30423Y98695D01*
X30371Y98605D01*
X30350Y98539D01*
X30321Y98476D01*
X30299Y98374D01*
X30269Y98274D01*
X30264Y98205D01*
X30250Y98138D01*
X30252Y98034D01*
X30245Y97929D01*
X30256Y97861D01*
X30258Y97792D01*
X30284Y97691D01*
X30301Y97588D01*
X30327Y97524D01*
X30345Y97458D01*
X30394Y97365D01*
X30434Y97269D01*
X30474Y97213D01*
X30506Y97152D01*
X30575Y97073D01*
X30636Y96989D01*
X30688Y96943D01*
X30733Y96891D01*
X30818Y96830D01*
X30897Y96762D01*
X30958Y96730D01*
X31014Y96690D01*
X31111Y96650D01*
X31203Y96601D01*
X31270Y96584D01*
X31334Y96558D01*
X31437Y96541D01*
X31538Y96515D01*
X31642Y96508D01*
X31675Y96502D01*
X31697Y96504D01*
X31743Y96501D01*
X32001Y96501D01*
X32001Y92999D01*
X28499Y92999D01*
X28499Y94763D01*
X28636Y95272D01*
X28912Y95750D01*
X28944Y95825D01*
X28985Y95895D01*
X29012Y95983D01*
X29049Y96068D01*
X29063Y96148D01*
X29087Y96226D01*
X29094Y96318D01*
X29110Y96408D01*
X29105Y96489D01*
X29111Y96571D01*
X29096Y96661D01*
X29091Y96753D01*
X29068Y96831D01*
X29055Y96912D01*
X29020Y96997D01*
X28994Y97085D01*
X28953Y97156D01*
X28922Y97231D01*
X28868Y97306D01*
X28823Y97386D01*
X28768Y97445D01*
X28720Y97511D01*
X28650Y97572D01*
X28588Y97639D01*
X28520Y97685D01*
X28459Y97738D01*
X28377Y97781D01*
X28301Y97832D01*
X28225Y97861D01*
X28153Y97899D01*
X28064Y97922D01*
X27978Y97954D01*
X27897Y97965D01*
X27818Y97985D01*
X27656Y97996D01*
X27635Y97999D01*
X27627Y97998D01*
X27613Y97999D01*
X18378Y97999D01*
X17310Y99068D01*
X17282Y99090D01*
X17259Y99116D01*
X17147Y99197D01*
X17039Y99282D01*
X17007Y99297D01*
X16978Y99318D01*
X16851Y99371D01*
X16726Y99429D01*
X16691Y99436D01*
X16659Y99450D01*
X16522Y99472D01*
X16388Y99500D01*
X16352Y99499D01*
X16317Y99505D01*
X16180Y99495D01*
X16042Y99492D01*
X16008Y99483D01*
X15972Y99481D01*
X15841Y99440D01*
X15708Y99405D01*
X15676Y99389D01*
X15642Y99378D01*
X15524Y99308D01*
X15402Y99244D01*
X15375Y99220D01*
X15345Y99202D01*
X15190Y99068D01*
X14608Y98486D01*
X14543Y98475D01*
X14407Y98459D01*
X14373Y98447D01*
X14338Y98442D01*
X14211Y98389D01*
X14081Y98342D01*
X14052Y98323D01*
X14019Y98309D01*
X13907Y98228D01*
X13792Y98153D01*
X13767Y98127D01*
X13739Y98107D01*
X13648Y98003D01*
X13553Y97903D01*
X13535Y97872D01*
X13512Y97846D01*
X13448Y97723D01*
X13378Y97605D01*
X13368Y97571D01*
X13351Y97539D01*
X13317Y97406D01*
X13276Y97274D01*
X13274Y97239D01*
X13265Y97205D01*
X13251Y97000D01*
X13251Y85750D01*
X13255Y85715D01*
X13252Y85679D01*
X13275Y85543D01*
X13291Y85407D01*
X13303Y85373D01*
X13308Y85338D01*
X13361Y85211D01*
X13408Y85081D01*
X13427Y85052D01*
X13441Y85019D01*
X13522Y84907D01*
X13597Y84792D01*
X13623Y84767D01*
X13643Y84739D01*
X13747Y84648D01*
X13847Y84553D01*
X13878Y84535D01*
X13904Y84512D01*
X14027Y84448D01*
X14145Y84378D01*
X14179Y84368D01*
X14211Y84351D01*
X14344Y84317D01*
X14476Y84276D01*
X14511Y84274D01*
X14545Y84265D01*
X14750Y84251D01*
X28300Y84251D01*
X28404Y84263D01*
G37*
G36*
X108035Y151005D02*
X108035Y151005D01*
X108070Y151003D01*
X108071Y151003D01*
X108207Y151025D01*
X108344Y151041D01*
X108377Y151053D01*
X108412Y151059D01*
X108539Y151112D01*
X108669Y151158D01*
X108699Y151178D01*
X108731Y151191D01*
X108843Y151272D01*
X108958Y151347D01*
X108983Y151373D01*
X109012Y151394D01*
X109102Y151498D01*
X109197Y151597D01*
X109215Y151628D01*
X109238Y151655D01*
X109302Y151777D01*
X109372Y151896D01*
X109382Y151929D01*
X109399Y151961D01*
X109433Y152094D01*
X109474Y152226D01*
X109477Y152261D01*
X109485Y152296D01*
X109499Y152500D01*
X109499Y157501D01*
X110250Y157501D01*
X110285Y157505D01*
X110321Y157502D01*
X110457Y157525D01*
X110593Y157541D01*
X110627Y157553D01*
X110662Y157558D01*
X110789Y157611D01*
X110919Y157658D01*
X110948Y157677D01*
X110981Y157691D01*
X111093Y157772D01*
X111208Y157847D01*
X111233Y157873D01*
X111261Y157893D01*
X111352Y157997D01*
X111447Y158097D01*
X111465Y158128D01*
X111488Y158154D01*
X111552Y158277D01*
X111622Y158395D01*
X111632Y158429D01*
X111649Y158461D01*
X111683Y158594D01*
X111724Y158726D01*
X111726Y158761D01*
X111735Y158795D01*
X111749Y159000D01*
X111749Y189500D01*
X111745Y189535D01*
X111748Y189571D01*
X111725Y189707D01*
X111709Y189843D01*
X111697Y189877D01*
X111692Y189912D01*
X111639Y190039D01*
X111592Y190169D01*
X111573Y190198D01*
X111559Y190231D01*
X111478Y190343D01*
X111403Y190458D01*
X111377Y190483D01*
X111357Y190511D01*
X111253Y190602D01*
X111153Y190697D01*
X111122Y190715D01*
X111096Y190738D01*
X110973Y190802D01*
X110855Y190872D01*
X110821Y190882D01*
X110789Y190899D01*
X110656Y190933D01*
X110524Y190974D01*
X110489Y190976D01*
X110455Y190985D01*
X110250Y190999D01*
X105750Y190999D01*
X105715Y190995D01*
X105679Y190998D01*
X105543Y190975D01*
X105407Y190959D01*
X105373Y190947D01*
X105338Y190942D01*
X105211Y190889D01*
X105081Y190842D01*
X105052Y190823D01*
X105019Y190809D01*
X104907Y190728D01*
X104792Y190653D01*
X104767Y190627D01*
X104739Y190607D01*
X104648Y190503D01*
X104553Y190403D01*
X104535Y190372D01*
X104512Y190346D01*
X104448Y190223D01*
X104378Y190105D01*
X104368Y190071D01*
X104351Y190039D01*
X104317Y189906D01*
X104276Y189774D01*
X104274Y189739D01*
X104265Y189705D01*
X104251Y189500D01*
X104251Y159000D01*
X104255Y158965D01*
X104252Y158929D01*
X104275Y158793D01*
X104291Y158657D01*
X104303Y158623D01*
X104308Y158588D01*
X104361Y158461D01*
X104408Y158331D01*
X104427Y158302D01*
X104441Y158269D01*
X104522Y158157D01*
X104597Y158042D01*
X104623Y158017D01*
X104643Y157989D01*
X104747Y157898D01*
X104847Y157803D01*
X104878Y157785D01*
X104904Y157762D01*
X105027Y157698D01*
X105145Y157628D01*
X105179Y157618D01*
X105211Y157601D01*
X105344Y157567D01*
X105476Y157526D01*
X105511Y157524D01*
X105545Y157515D01*
X105750Y157501D01*
X106501Y157501D01*
X106501Y152500D01*
X106505Y152465D01*
X106502Y152430D01*
X106525Y152294D01*
X106540Y152157D01*
X106552Y152124D01*
X106558Y152089D01*
X106611Y151961D01*
X106658Y151832D01*
X106677Y151802D01*
X106691Y151769D01*
X106771Y151658D01*
X106847Y151542D01*
X106872Y151518D01*
X106893Y151489D01*
X106997Y151398D01*
X107097Y151303D01*
X107127Y151286D01*
X107154Y151262D01*
X107277Y151198D01*
X107395Y151128D01*
X107429Y151118D01*
X107460Y151101D01*
X107594Y151067D01*
X107725Y151026D01*
X107761Y151024D01*
X107795Y151015D01*
X108000Y151001D01*
X108035Y151005D01*
G37*
G36*
X10902Y52384D02*
X10902Y52384D01*
X10987Y52380D01*
X11073Y52396D01*
X11161Y52403D01*
X11243Y52428D01*
X11327Y52444D01*
X11407Y52479D01*
X11491Y52505D01*
X11565Y52549D01*
X11644Y52584D01*
X11713Y52636D01*
X11789Y52681D01*
X11897Y52776D01*
X11919Y52792D01*
X11927Y52801D01*
X11943Y52816D01*
X12878Y53751D01*
X20593Y53751D01*
X20731Y53767D01*
X20871Y53777D01*
X20903Y53787D01*
X20937Y53791D01*
X21067Y53838D01*
X21201Y53879D01*
X21230Y53897D01*
X21262Y53908D01*
X21379Y53984D01*
X21499Y54055D01*
X21533Y54085D01*
X21551Y54097D01*
X21575Y54121D01*
X21653Y54190D01*
X26653Y59190D01*
X26718Y59272D01*
X26790Y59347D01*
X26825Y59407D01*
X26868Y59461D01*
X26912Y59555D01*
X26965Y59645D01*
X26985Y59711D01*
X27015Y59774D01*
X27036Y59876D01*
X27067Y59976D01*
X27072Y60045D01*
X27086Y60112D01*
X27084Y60216D01*
X27091Y60321D01*
X27080Y60389D01*
X27078Y60458D01*
X27052Y60559D01*
X27035Y60662D01*
X27008Y60726D01*
X26991Y60792D01*
X26942Y60885D01*
X26902Y60981D01*
X26862Y61037D01*
X26829Y61098D01*
X26761Y61177D01*
X26700Y61261D01*
X26648Y61307D01*
X26602Y61359D01*
X26518Y61420D01*
X26439Y61488D01*
X26378Y61520D01*
X26321Y61561D01*
X26225Y61600D01*
X26133Y61649D01*
X26066Y61666D01*
X26002Y61692D01*
X25899Y61709D01*
X25798Y61735D01*
X25694Y61742D01*
X25661Y61748D01*
X25638Y61746D01*
X25593Y61749D01*
X5500Y61749D01*
X5465Y61745D01*
X5429Y61748D01*
X5293Y61725D01*
X5157Y61709D01*
X5123Y61697D01*
X5088Y61692D01*
X4961Y61639D01*
X4831Y61592D01*
X4802Y61573D01*
X4769Y61559D01*
X4657Y61478D01*
X4542Y61403D01*
X4517Y61377D01*
X4489Y61357D01*
X4398Y61253D01*
X4303Y61153D01*
X4285Y61122D01*
X4262Y61096D01*
X4198Y60973D01*
X4128Y60855D01*
X4118Y60821D01*
X4101Y60789D01*
X4067Y60656D01*
X4026Y60524D01*
X4024Y60489D01*
X4015Y60455D01*
X4001Y60250D01*
X4001Y54035D01*
X4019Y53879D01*
X4033Y53724D01*
X4039Y53708D01*
X4041Y53691D01*
X4094Y53544D01*
X4143Y53396D01*
X4152Y53382D01*
X4158Y53366D01*
X4244Y53235D01*
X4326Y53103D01*
X4338Y53091D01*
X4347Y53076D01*
X4460Y52969D01*
X4570Y52858D01*
X4585Y52849D01*
X4597Y52838D01*
X4732Y52759D01*
X4865Y52677D01*
X4881Y52671D01*
X4895Y52663D01*
X5044Y52617D01*
X5193Y52567D01*
X5209Y52566D01*
X5226Y52561D01*
X5382Y52550D01*
X5537Y52536D01*
X5554Y52538D01*
X5571Y52537D01*
X5725Y52562D01*
X5879Y52584D01*
X5900Y52591D01*
X5912Y52593D01*
X5937Y52604D01*
X6074Y52649D01*
X6999Y53033D01*
X9001Y53033D01*
X10310Y52491D01*
X10394Y52467D01*
X10475Y52433D01*
X10559Y52420D01*
X10642Y52396D01*
X10729Y52392D01*
X10816Y52378D01*
X10902Y52384D01*
G37*
G36*
X86709Y125870D02*
X86709Y125870D01*
X86847Y125869D01*
X86881Y125877D01*
X86917Y125878D01*
X87050Y125915D01*
X87184Y125946D01*
X87216Y125961D01*
X87250Y125971D01*
X87434Y126061D01*
X87848Y126300D01*
X87895Y126335D01*
X87947Y126362D01*
X88033Y126438D01*
X88126Y126506D01*
X88163Y126551D01*
X88207Y126589D01*
X88274Y126683D01*
X88348Y126771D01*
X88375Y126823D01*
X88409Y126870D01*
X88453Y126976D01*
X88505Y127079D01*
X88519Y127136D01*
X88541Y127190D01*
X88559Y127303D01*
X88586Y127415D01*
X88587Y127473D01*
X88596Y127531D01*
X88588Y127646D01*
X88589Y127761D01*
X88576Y127818D01*
X88572Y127876D01*
X88538Y127986D01*
X88512Y128098D01*
X88486Y128150D01*
X88469Y128206D01*
X88411Y128305D01*
X88360Y128408D01*
X88323Y128453D01*
X88293Y128504D01*
X88159Y128658D01*
X87749Y129068D01*
X87749Y139500D01*
X87745Y139535D01*
X87748Y139571D01*
X87725Y139707D01*
X87709Y139843D01*
X87697Y139877D01*
X87692Y139912D01*
X87639Y140039D01*
X87592Y140169D01*
X87573Y140198D01*
X87559Y140231D01*
X87478Y140343D01*
X87403Y140458D01*
X87377Y140483D01*
X87357Y140511D01*
X87253Y140602D01*
X87153Y140697D01*
X87122Y140715D01*
X87096Y140738D01*
X86973Y140802D01*
X86855Y140872D01*
X86821Y140882D01*
X86789Y140899D01*
X86656Y140933D01*
X86524Y140974D01*
X86489Y140976D01*
X86455Y140985D01*
X86250Y140999D01*
X84999Y140999D01*
X84999Y144501D01*
X86250Y144501D01*
X86285Y144505D01*
X86321Y144502D01*
X86457Y144525D01*
X86593Y144540D01*
X86627Y144552D01*
X86662Y144558D01*
X86789Y144611D01*
X86919Y144658D01*
X86948Y144677D01*
X86981Y144691D01*
X87093Y144771D01*
X87208Y144847D01*
X87233Y144872D01*
X87261Y144893D01*
X87352Y144997D01*
X87447Y145097D01*
X87465Y145127D01*
X87488Y145154D01*
X87552Y145276D01*
X87622Y145395D01*
X87632Y145429D01*
X87649Y145460D01*
X87683Y145594D01*
X87724Y145725D01*
X87726Y145761D01*
X87735Y145795D01*
X87749Y146000D01*
X87745Y146035D01*
X87748Y146070D01*
X87748Y146071D01*
X87725Y146207D01*
X87709Y146344D01*
X87697Y146377D01*
X87692Y146412D01*
X87639Y146539D01*
X87592Y146669D01*
X87573Y146699D01*
X87559Y146731D01*
X87478Y146843D01*
X87403Y146958D01*
X87377Y146983D01*
X87357Y147012D01*
X87253Y147102D01*
X87153Y147197D01*
X87122Y147215D01*
X87096Y147238D01*
X86973Y147302D01*
X86855Y147372D01*
X86821Y147382D01*
X86789Y147399D01*
X86656Y147433D01*
X86524Y147474D01*
X86489Y147477D01*
X86455Y147485D01*
X86250Y147499D01*
X84999Y147499D01*
X84999Y151000D01*
X84995Y151035D01*
X84998Y151071D01*
X84975Y151207D01*
X84960Y151343D01*
X84947Y151377D01*
X84942Y151412D01*
X84889Y151539D01*
X84842Y151669D01*
X84823Y151698D01*
X84809Y151731D01*
X84729Y151843D01*
X84653Y151958D01*
X84628Y151983D01*
X84607Y152011D01*
X84503Y152102D01*
X84403Y152197D01*
X84373Y152215D01*
X84346Y152238D01*
X84223Y152302D01*
X84105Y152372D01*
X84071Y152382D01*
X84040Y152399D01*
X83906Y152433D01*
X83775Y152474D01*
X83739Y152476D01*
X83705Y152485D01*
X83500Y152499D01*
X83465Y152495D01*
X83430Y152498D01*
X83429Y152498D01*
X83293Y152475D01*
X83156Y152459D01*
X83123Y152447D01*
X83088Y152442D01*
X82961Y152389D01*
X82831Y152342D01*
X82801Y152323D01*
X82769Y152309D01*
X82657Y152228D01*
X82542Y152153D01*
X82517Y152127D01*
X82488Y152107D01*
X82398Y152003D01*
X82303Y151903D01*
X82285Y151872D01*
X82262Y151846D01*
X82198Y151723D01*
X82128Y151605D01*
X82118Y151571D01*
X82101Y151539D01*
X82067Y151406D01*
X82026Y151274D01*
X82023Y151239D01*
X82015Y151205D01*
X82001Y151000D01*
X82001Y146000D01*
X82001Y140999D01*
X80449Y140999D01*
X80294Y140981D01*
X80138Y140967D01*
X80122Y140961D01*
X80105Y140959D01*
X79959Y140906D01*
X79810Y140857D01*
X79796Y140848D01*
X79780Y140842D01*
X79649Y140756D01*
X79517Y140674D01*
X79505Y140662D01*
X79491Y140653D01*
X79383Y140540D01*
X79272Y140429D01*
X79264Y140415D01*
X79252Y140403D01*
X79173Y140268D01*
X79091Y140135D01*
X79085Y140119D01*
X79077Y140105D01*
X79031Y139955D01*
X78981Y139807D01*
X78980Y139791D01*
X78975Y139774D01*
X78964Y139618D01*
X78950Y139463D01*
X78952Y139446D01*
X78951Y139429D01*
X78977Y139275D01*
X78998Y139121D01*
X79005Y139100D01*
X79007Y139088D01*
X79018Y139063D01*
X79033Y139018D01*
X79033Y136999D01*
X78340Y135327D01*
X78322Y135264D01*
X78296Y135205D01*
X78275Y135099D01*
X78246Y134994D01*
X78243Y134930D01*
X78230Y134866D01*
X78235Y134757D01*
X78230Y134649D01*
X78242Y134585D01*
X78244Y134520D01*
X78273Y134416D01*
X78293Y134309D01*
X78320Y134250D01*
X78337Y134187D01*
X78389Y134092D01*
X78433Y133993D01*
X78472Y133941D01*
X78503Y133884D01*
X78634Y133726D01*
X85593Y126332D01*
X85619Y126309D01*
X85642Y126282D01*
X85751Y126198D01*
X85857Y126109D01*
X85888Y126093D01*
X85916Y126072D01*
X86042Y126015D01*
X86165Y125953D01*
X86200Y125944D01*
X86232Y125930D01*
X86367Y125904D01*
X86501Y125871D01*
X86537Y125871D01*
X86571Y125864D01*
X86709Y125870D01*
G37*
G36*
X135085Y130767D02*
X135085Y130767D01*
X135224Y130777D01*
X135257Y130787D01*
X135290Y130791D01*
X135421Y130838D01*
X135554Y130879D01*
X135584Y130897D01*
X135615Y130908D01*
X135732Y130984D01*
X135852Y131055D01*
X135886Y131085D01*
X135905Y131097D01*
X135928Y131121D01*
X136007Y131190D01*
X141310Y136493D01*
X141397Y136602D01*
X141488Y136708D01*
X141504Y136738D01*
X141525Y136764D01*
X141584Y136890D01*
X141649Y137014D01*
X141657Y137047D01*
X141672Y137077D01*
X141700Y137213D01*
X141735Y137349D01*
X141738Y137394D01*
X141743Y137416D01*
X141742Y137449D01*
X141749Y137553D01*
X141749Y139500D01*
X141745Y139535D01*
X141748Y139571D01*
X141725Y139707D01*
X141709Y139843D01*
X141697Y139877D01*
X141692Y139912D01*
X141639Y140039D01*
X141592Y140169D01*
X141573Y140198D01*
X141559Y140231D01*
X141478Y140343D01*
X141403Y140458D01*
X141377Y140483D01*
X141357Y140511D01*
X141253Y140602D01*
X141153Y140697D01*
X141122Y140715D01*
X141096Y140738D01*
X140973Y140802D01*
X140855Y140872D01*
X140821Y140882D01*
X140789Y140899D01*
X140656Y140933D01*
X140524Y140974D01*
X140489Y140976D01*
X140455Y140985D01*
X140250Y140999D01*
X139999Y140999D01*
X139999Y146000D01*
X139995Y146035D01*
X139998Y146070D01*
X139975Y146206D01*
X139960Y146343D01*
X139947Y146376D01*
X139942Y146411D01*
X139889Y146539D01*
X139842Y146668D01*
X139823Y146698D01*
X139809Y146731D01*
X139729Y146842D01*
X139653Y146958D01*
X139628Y146982D01*
X139607Y147011D01*
X139503Y147102D01*
X139403Y147197D01*
X139373Y147214D01*
X139346Y147238D01*
X139223Y147302D01*
X139105Y147372D01*
X139071Y147382D01*
X139040Y147399D01*
X138906Y147433D01*
X138775Y147474D01*
X138739Y147476D01*
X138705Y147485D01*
X138500Y147499D01*
X138465Y147495D01*
X138430Y147497D01*
X138429Y147497D01*
X138293Y147475D01*
X138156Y147459D01*
X138123Y147447D01*
X138088Y147441D01*
X137961Y147388D01*
X137831Y147342D01*
X137801Y147322D01*
X137769Y147309D01*
X137657Y147228D01*
X137542Y147153D01*
X137517Y147127D01*
X137488Y147106D01*
X137398Y147002D01*
X137303Y146903D01*
X137285Y146872D01*
X137262Y146845D01*
X137198Y146723D01*
X137128Y146604D01*
X137118Y146571D01*
X137101Y146539D01*
X137067Y146406D01*
X137026Y146274D01*
X137023Y146239D01*
X137015Y146204D01*
X137001Y146000D01*
X137001Y140999D01*
X135237Y140999D01*
X134728Y141136D01*
X134271Y141399D01*
X133847Y141824D01*
X133822Y141853D01*
X133753Y141945D01*
X133708Y141983D01*
X133670Y142027D01*
X133576Y142094D01*
X133489Y142168D01*
X133437Y142194D01*
X133389Y142229D01*
X133283Y142272D01*
X133181Y142324D01*
X133124Y142338D01*
X133069Y142361D01*
X132956Y142379D01*
X132845Y142406D01*
X132786Y142406D01*
X132728Y142416D01*
X132613Y142408D01*
X132499Y142409D01*
X132442Y142396D01*
X132383Y142391D01*
X132273Y142357D01*
X132162Y142332D01*
X132109Y142306D01*
X132053Y142289D01*
X131954Y142230D01*
X131851Y142180D01*
X131806Y142143D01*
X131755Y142113D01*
X131600Y141978D01*
X131122Y141499D01*
X130500Y141499D01*
X130465Y141495D01*
X130429Y141498D01*
X130293Y141475D01*
X130157Y141459D01*
X130123Y141447D01*
X130088Y141442D01*
X129961Y141389D01*
X129831Y141342D01*
X129802Y141323D01*
X129769Y141309D01*
X129657Y141228D01*
X129542Y141153D01*
X129517Y141127D01*
X129489Y141107D01*
X129398Y141003D01*
X129303Y140903D01*
X129285Y140872D01*
X129262Y140846D01*
X129198Y140723D01*
X129128Y140605D01*
X129118Y140571D01*
X129101Y140539D01*
X129067Y140406D01*
X129026Y140274D01*
X129024Y140239D01*
X129015Y140205D01*
X129001Y140000D01*
X129001Y132500D01*
X129005Y132465D01*
X129002Y132429D01*
X129025Y132293D01*
X129041Y132157D01*
X129053Y132123D01*
X129058Y132088D01*
X129111Y131961D01*
X129158Y131831D01*
X129177Y131802D01*
X129191Y131769D01*
X129272Y131657D01*
X129347Y131542D01*
X129373Y131517D01*
X129393Y131489D01*
X129497Y131398D01*
X129597Y131303D01*
X129628Y131285D01*
X129654Y131262D01*
X129777Y131198D01*
X129895Y131128D01*
X129929Y131118D01*
X129961Y131101D01*
X130094Y131067D01*
X130226Y131026D01*
X130261Y131024D01*
X130295Y131015D01*
X130500Y131001D01*
X132583Y131001D01*
X132591Y130996D01*
X132618Y130975D01*
X132744Y130916D01*
X132867Y130851D01*
X132900Y130843D01*
X132931Y130828D01*
X133067Y130800D01*
X133202Y130765D01*
X133247Y130762D01*
X133269Y130757D01*
X133303Y130758D01*
X133407Y130751D01*
X134947Y130751D01*
X135085Y130767D01*
G37*
%LPC*%
G36*
X71237Y16749D02*
X71237Y16749D01*
X70728Y16886D01*
X70271Y17149D01*
X70060Y17360D01*
X70032Y17382D01*
X70009Y17409D01*
X69897Y17490D01*
X69789Y17575D01*
X69757Y17590D01*
X69728Y17611D01*
X69601Y17663D01*
X69476Y17722D01*
X69441Y17729D01*
X69409Y17743D01*
X69273Y17765D01*
X69138Y17793D01*
X69102Y17792D01*
X69067Y17798D01*
X68930Y17788D01*
X68792Y17785D01*
X68758Y17776D01*
X68722Y17774D01*
X68591Y17733D01*
X68458Y17698D01*
X68426Y17681D01*
X68392Y17671D01*
X68273Y17601D01*
X68152Y17536D01*
X68125Y17513D01*
X68094Y17495D01*
X67940Y17360D01*
X67728Y17149D01*
X67272Y16886D01*
X66763Y16749D01*
X64249Y16749D01*
X64249Y21751D01*
X73751Y21751D01*
X73751Y16749D01*
X71237Y16749D01*
G37*
%LPD*%
%LPC*%
G36*
X128499Y171999D02*
X128499Y171999D01*
X128499Y175501D01*
X130263Y175501D01*
X130772Y175364D01*
X131070Y175193D01*
X131102Y175178D01*
X131132Y175159D01*
X131261Y175110D01*
X131387Y175055D01*
X131422Y175049D01*
X131455Y175037D01*
X131592Y175019D01*
X131728Y174995D01*
X131763Y174996D01*
X131798Y174992D01*
X131935Y175006D01*
X132073Y175013D01*
X132107Y175023D01*
X132142Y175027D01*
X132272Y175072D01*
X132405Y175111D01*
X132435Y175128D01*
X132469Y175140D01*
X132585Y175213D01*
X132705Y175281D01*
X132731Y175305D01*
X132761Y175324D01*
X132858Y175423D01*
X132959Y175516D01*
X132979Y175546D01*
X133003Y175571D01*
X133118Y175741D01*
X133399Y176229D01*
X133771Y176601D01*
X134228Y176864D01*
X134737Y177001D01*
X137626Y177001D01*
X137626Y172874D01*
X133500Y172874D01*
X133465Y172870D01*
X133429Y172873D01*
X133293Y172850D01*
X133157Y172834D01*
X133123Y172822D01*
X133088Y172817D01*
X132961Y172764D01*
X132831Y172717D01*
X132802Y172698D01*
X132769Y172684D01*
X132657Y172603D01*
X132542Y172528D01*
X132517Y172502D01*
X132489Y172482D01*
X132398Y172378D01*
X132303Y172278D01*
X132285Y172247D01*
X132262Y172221D01*
X132198Y172098D01*
X132140Y171999D01*
X128499Y171999D01*
G37*
%LPD*%
%LPC*%
G36*
X156374Y152999D02*
X156374Y152999D01*
X156374Y157126D01*
X160500Y157126D01*
X160535Y157130D01*
X160571Y157127D01*
X160707Y157150D01*
X160843Y157166D01*
X160877Y157178D01*
X160912Y157183D01*
X161039Y157236D01*
X161169Y157283D01*
X161198Y157302D01*
X161231Y157316D01*
X161343Y157397D01*
X161458Y157472D01*
X161483Y157498D01*
X161511Y157518D01*
X161602Y157622D01*
X161697Y157722D01*
X161715Y157753D01*
X161738Y157779D01*
X161802Y157902D01*
X161860Y158001D01*
X165501Y158001D01*
X165501Y154499D01*
X163737Y154499D01*
X163228Y154636D01*
X162930Y154807D01*
X162898Y154822D01*
X162868Y154841D01*
X162739Y154890D01*
X162613Y154945D01*
X162578Y154951D01*
X162545Y154963D01*
X162408Y154981D01*
X162272Y155005D01*
X162237Y155004D01*
X162202Y155008D01*
X162065Y154994D01*
X161927Y154987D01*
X161893Y154977D01*
X161858Y154973D01*
X161728Y154928D01*
X161595Y154889D01*
X161565Y154872D01*
X161531Y154860D01*
X161415Y154787D01*
X161295Y154719D01*
X161269Y154695D01*
X161239Y154676D01*
X161142Y154577D01*
X161041Y154484D01*
X161021Y154454D01*
X160997Y154429D01*
X160882Y154259D01*
X160601Y153771D01*
X160229Y153399D01*
X159772Y153136D01*
X159263Y152999D01*
X156374Y152999D01*
G37*
%LPD*%
%LPC*%
G36*
X25749Y139249D02*
X25749Y139249D01*
X25749Y141763D01*
X25886Y142272D01*
X26149Y142729D01*
X26521Y143101D01*
X26978Y143364D01*
X27487Y143501D01*
X30751Y143501D01*
X30751Y139249D01*
X25749Y139249D01*
G37*
%LPD*%
%LPC*%
G36*
X27487Y130499D02*
X27487Y130499D01*
X26978Y130636D01*
X26521Y130899D01*
X26149Y131271D01*
X25886Y131728D01*
X25749Y132237D01*
X25749Y134751D01*
X30751Y134751D01*
X30751Y130499D01*
X27487Y130499D01*
G37*
%LPD*%
%LPC*%
G36*
X13237Y23749D02*
X13237Y23749D01*
X12728Y23886D01*
X12271Y24149D01*
X11899Y24521D01*
X11636Y24978D01*
X11499Y25487D01*
X11499Y28751D01*
X15751Y28751D01*
X15751Y23749D01*
X13237Y23749D01*
G37*
%LPD*%
%LPC*%
G36*
X212499Y115499D02*
X212499Y115499D01*
X212499Y119001D01*
X214263Y119001D01*
X214772Y118864D01*
X215229Y118601D01*
X215601Y118229D01*
X215864Y117772D01*
X216001Y117263D01*
X216001Y115499D01*
X212499Y115499D01*
G37*
%LPD*%
%LPC*%
G36*
X180499Y115499D02*
X180499Y115499D01*
X180499Y119001D01*
X182263Y119001D01*
X182772Y118864D01*
X183229Y118601D01*
X183601Y118229D01*
X183864Y117772D01*
X184001Y117263D01*
X184001Y115499D01*
X180499Y115499D01*
G37*
%LPD*%
%LPC*%
G36*
X167999Y139499D02*
X167999Y139499D01*
X167999Y143001D01*
X169763Y143001D01*
X170272Y142864D01*
X170729Y142601D01*
X171101Y142229D01*
X171364Y141772D01*
X171501Y141263D01*
X171501Y139499D01*
X167999Y139499D01*
G37*
%LPD*%
%LPC*%
G36*
X167999Y73999D02*
X167999Y73999D01*
X167999Y77501D01*
X171501Y77501D01*
X171501Y75737D01*
X171364Y75228D01*
X171101Y74771D01*
X170729Y74399D01*
X170272Y74136D01*
X169763Y73999D01*
X167999Y73999D01*
G37*
%LPD*%
%LPC*%
G36*
X173999Y115499D02*
X173999Y115499D01*
X173999Y117263D01*
X174136Y117772D01*
X174399Y118229D01*
X174771Y118601D01*
X175228Y118864D01*
X175737Y119001D01*
X177501Y119001D01*
X177501Y115499D01*
X173999Y115499D01*
G37*
%LPD*%
%LPC*%
G36*
X121999Y171999D02*
X121999Y171999D01*
X121999Y173763D01*
X122136Y174272D01*
X122399Y174729D01*
X122771Y175101D01*
X123228Y175364D01*
X123737Y175501D01*
X125501Y175501D01*
X125501Y171999D01*
X121999Y171999D01*
G37*
%LPD*%
%LPC*%
G36*
X205999Y115499D02*
X205999Y115499D01*
X205999Y117263D01*
X206136Y117772D01*
X206399Y118229D01*
X206771Y118601D01*
X207228Y118864D01*
X207737Y119001D01*
X209501Y119001D01*
X209501Y115499D01*
X205999Y115499D01*
G37*
%LPD*%
%LPC*%
G36*
X107999Y31999D02*
X107999Y31999D01*
X107999Y35501D01*
X111501Y35501D01*
X111501Y33737D01*
X111364Y33228D01*
X111101Y32771D01*
X110729Y32399D01*
X110272Y32136D01*
X109763Y31999D01*
X107999Y31999D01*
G37*
%LPD*%
%LPC*%
G36*
X135999Y31999D02*
X135999Y31999D01*
X135999Y35501D01*
X139501Y35501D01*
X139501Y33737D01*
X139364Y33228D01*
X139101Y32771D01*
X138729Y32399D01*
X138272Y32136D01*
X137763Y31999D01*
X135999Y31999D01*
G37*
%LPD*%
%LPC*%
G36*
X168499Y154499D02*
X168499Y154499D01*
X168499Y158001D01*
X172001Y158001D01*
X172001Y156237D01*
X171864Y155728D01*
X171601Y155271D01*
X171229Y154899D01*
X170772Y154636D01*
X170263Y154499D01*
X168499Y154499D01*
G37*
%LPD*%
D10*
X154250Y170750D03*
X139750Y170750D03*
X139750Y159250D03*
X154250Y159250D03*
D11*
X158000Y103000D03*
X169000Y103000D03*
X127000Y159500D03*
X127000Y170500D03*
X167000Y170500D03*
X167000Y159500D03*
X148000Y103000D03*
X148000Y114000D03*
X51000Y125500D03*
X40000Y125500D03*
X106500Y48000D03*
X106500Y37000D03*
X134500Y48000D03*
X134500Y37000D03*
X161000Y127500D03*
X161000Y116500D03*
X155500Y138000D03*
X166500Y138000D03*
D12*
X49000Y137000D03*
X33000Y137000D03*
X66000Y159000D03*
X82000Y159000D03*
D13*
X24000Y108500D03*
X49000Y108500D03*
D11*
X11000Y114000D03*
X11000Y103000D03*
X33500Y91500D03*
X44500Y91500D03*
X51500Y183000D03*
X62500Y183000D03*
D14*
X50000Y153000D03*
X50000Y169000D03*
D15*
X104000Y96000D03*
D16*
X76500Y96000D03*
X76500Y101000D03*
X76500Y106000D03*
X76500Y111000D03*
X76500Y116000D03*
X71500Y118500D03*
X71500Y108500D03*
X71500Y103500D03*
X71500Y98500D03*
X71500Y93500D03*
X76500Y91000D03*
X76500Y86000D03*
X71500Y88500D03*
X71500Y83500D03*
X71500Y78500D03*
X76500Y76000D03*
X76500Y71000D03*
X76500Y63500D03*
X81500Y63500D03*
X84000Y68500D03*
X86500Y63500D03*
X91500Y63500D03*
X96500Y63500D03*
X101500Y63500D03*
X106500Y63500D03*
X111500Y63500D03*
X116500Y63500D03*
X121500Y63500D03*
X126500Y63500D03*
X131500Y63500D03*
X124000Y68500D03*
X119000Y68500D03*
X114000Y68500D03*
X109000Y68500D03*
X104000Y68500D03*
X99000Y68500D03*
X94000Y68500D03*
X131500Y76000D03*
X136500Y73500D03*
X136500Y68500D03*
X136500Y78500D03*
X131500Y81000D03*
X136500Y83500D03*
X131500Y86000D03*
X131500Y91000D03*
X136500Y88500D03*
X136500Y93500D03*
X136500Y98500D03*
X136500Y103500D03*
X131500Y106000D03*
X131500Y111000D03*
X136500Y113500D03*
X131500Y116000D03*
X136500Y123500D03*
X71500Y123500D03*
X84000Y123500D03*
X89000Y123500D03*
X94000Y123500D03*
X96500Y128500D03*
X99000Y123500D03*
X101500Y128500D03*
X104000Y123500D03*
X106500Y128500D03*
X109000Y123500D03*
X111500Y128500D03*
X114000Y123500D03*
X116500Y128500D03*
X119000Y123500D03*
X121500Y128500D03*
X126500Y128500D03*
X131500Y128500D03*
X79000Y123500D03*
X91500Y128500D03*
D17*
X98000Y102000D03*
X86000Y102000D03*
X86000Y114000D03*
X98000Y114000D03*
X110000Y114000D03*
X122000Y114000D03*
X122000Y102000D03*
X110000Y102000D03*
X86000Y90000D03*
X98000Y90000D03*
X110000Y90000D03*
X122000Y90000D03*
X122000Y78000D03*
X110000Y78000D03*
X98000Y78000D03*
X86000Y78000D03*
D11*
X155500Y79000D03*
X166500Y79000D03*
X179000Y103000D03*
X179000Y114000D03*
X211000Y103000D03*
X211000Y114000D03*
X127500Y146000D03*
X138500Y146000D03*
X108000Y141500D03*
X108000Y152500D03*
D14*
X18000Y47000D03*
X18000Y31000D03*
X34000Y47000D03*
X34000Y31000D03*
X62000Y40000D03*
X62000Y24000D03*
X48000Y31000D03*
X48000Y47000D03*
D11*
X72500Y146000D03*
X83500Y146000D03*
D14*
X76000Y40000D03*
X76000Y24000D03*
D18*
X144000Y110000D02*
X148000Y114000D01*
X132500Y110000D02*
X131500Y111000D01*
X132500Y110000D02*
X144000Y110000D01*
D19*
X89000Y125500D02*
X84000Y130500D01*
D20*
X84000Y146000D01*
D19*
X83500Y146500D01*
X83500Y146000D01*
X82000Y147500D01*
D20*
X82000Y159000D01*
D19*
X89000Y123500D02*
X89000Y117000D01*
X86000Y114000D01*
X125000Y111000D02*
X131500Y111000D01*
X125000Y111000D02*
X122000Y114000D01*
D21*
X174000Y78500D03*
X196000Y95000D03*
X170000Y95000D03*
X170000Y115000D03*
X179000Y123000D03*
X175000Y138000D03*
X155000Y149000D03*
X139000Y181000D03*
X108000Y161000D03*
X142000Y37000D03*
X114000Y37000D03*
X76000Y12000D03*
X62000Y12000D03*
X34000Y19000D03*
X18000Y19000D03*
X18000Y58000D03*
X25000Y91500D03*
X36500Y108500D03*
X11000Y122500D03*
X31500Y125500D03*
X22000Y137000D03*
X79000Y169000D03*
D19*
X106500Y37000D02*
X114000Y37000D01*
X134500Y37000D02*
X142000Y37000D01*
X167000Y78500D02*
X174000Y78500D01*
X168500Y116500D02*
X161000Y116500D01*
X168500Y116500D02*
X170000Y115000D01*
X171000Y114000D02*
X179000Y114000D01*
X171000Y114000D02*
X170000Y115000D01*
X179000Y114000D02*
X179000Y123000D01*
X175000Y138000D02*
X166500Y138000D01*
X155000Y149000D02*
X155000Y158500D01*
X154828Y158672D01*
X154250Y159250D01*
X155656Y159500D02*
X167000Y159500D01*
X155656Y159500D02*
X154828Y158672D01*
X139000Y171500D02*
X139000Y181000D01*
X139000Y171500D02*
X139750Y170750D01*
X138000Y170500D02*
X127000Y170500D01*
X138000Y170500D02*
X139000Y171500D01*
X108000Y161000D02*
X108000Y152500D01*
D20*
X82000Y159000D02*
X82000Y166000D01*
X33000Y137000D02*
X22000Y137000D01*
X31500Y125500D02*
X40000Y125500D01*
D19*
X11000Y122500D02*
X11000Y114000D01*
X25000Y91500D02*
X33500Y91500D01*
D20*
X18000Y31000D02*
X18000Y19000D01*
X34000Y19000D02*
X34000Y31000D01*
X62000Y24000D02*
X62000Y12000D01*
X76000Y12000D02*
X76000Y24000D01*
D19*
X89000Y123500D02*
X89000Y125500D01*
D21*
X84000Y134000D03*
D22*
X135000Y137000D03*
D19*
X166500Y79000D02*
X167000Y78500D01*
D20*
X82000Y166000D02*
X79000Y169000D01*
D19*
X71500Y118500D02*
X67500Y118500D01*
X62000Y124000D02*
X51500Y124000D01*
X51000Y125500D01*
X62000Y124000D02*
X67500Y118500D01*
D18*
X131500Y116000D02*
X135500Y120000D01*
X138000Y120000D01*
X155000Y137000D01*
X150500Y127500D02*
X161000Y127500D01*
X150500Y127500D02*
X136500Y113500D01*
D19*
X84000Y124375D02*
X74000Y135000D01*
X74000Y138000D01*
X74000Y146000D01*
X72500Y146000D01*
X66000Y152500D01*
X66000Y158361D01*
X66000Y159000D01*
X66000Y179500D02*
X62500Y183000D01*
X66000Y179500D02*
X66000Y158361D01*
D21*
X74000Y138000D03*
X169500Y128000D03*
D19*
X161500Y128000D01*
X161000Y127500D01*
X84000Y124375D02*
X84000Y123500D01*
D18*
X144000Y107000D02*
X148000Y103000D01*
X132500Y107000D02*
X131500Y106000D01*
X132500Y107000D02*
X144000Y107000D01*
D23*
X148000Y103000D02*
X158000Y103000D01*
D18*
X139500Y159500D02*
X127000Y159500D01*
X139500Y159500D02*
X139750Y159250D01*
X144000Y155000D01*
X144000Y136000D01*
X136500Y128500D02*
X131500Y128500D01*
X136500Y128500D02*
X144000Y136000D01*
X154500Y170500D02*
X167000Y170500D01*
X154500Y170500D02*
X154250Y170750D01*
X153750Y170750D01*
X148568Y165750D01*
X147000Y164182D01*
X147000Y134000D02*
X136500Y123500D01*
X147000Y134000D02*
X147000Y164182D01*
X76500Y116000D02*
X75500Y115000D01*
X66000Y115000D01*
X61000Y120000D01*
X24000Y112000D02*
X24000Y108500D01*
X32000Y120000D02*
X61000Y120000D01*
X32000Y120000D02*
X24000Y112000D01*
X24000Y108500D02*
X24000Y103000D01*
X11000Y103000D01*
X11000Y87000D01*
X9000Y85000D01*
X4750Y85000D01*
X3000Y85000D01*
X75500Y112000D02*
X76500Y111000D01*
X49000Y112000D02*
X49000Y108500D01*
X49000Y112000D02*
X75500Y112000D01*
X49000Y108500D02*
X49000Y96000D01*
X44500Y91500D01*
X35000Y82000D02*
X3000Y82000D01*
X35000Y82000D02*
X44500Y91500D01*
D19*
X126500Y128500D02*
X126500Y145000D01*
X127500Y146000D01*
D21*
X120000Y152000D03*
D19*
X126500Y145500D02*
X126500Y145000D01*
X126500Y145500D02*
X120000Y152000D01*
X106500Y63500D02*
X106500Y48000D01*
X131500Y63500D02*
X134500Y60000D01*
X134500Y48000D01*
X71500Y78500D02*
X69500Y78500D01*
X51000Y60000D01*
X31000Y60000D01*
X18123Y47123D01*
X18000Y47000D01*
X71500Y123500D02*
X61000Y134000D01*
X52000Y134000D01*
X49000Y137000D01*
D21*
X114000Y48000D03*
X142000Y48000D03*
D19*
X134500Y48000D01*
X114000Y48000D02*
X106500Y48000D01*
D21*
X48000Y19000D03*
D20*
X48000Y31000D01*
D21*
X40000Y147000D03*
D20*
X49000Y138000D02*
X49000Y137000D01*
X49000Y138000D02*
X40000Y147000D01*
D21*
X8000Y48000D03*
D20*
X18123Y48000D01*
X18123Y47123D01*
D23*
X169000Y103000D02*
X218500Y103000D01*
D19*
X51500Y183000D02*
X50000Y181500D01*
X50000Y169000D01*
D20*
X50000Y152500D02*
X79000Y123500D01*
X50000Y152500D02*
X50000Y153000D01*
D18*
X136500Y73500D02*
X152000Y58000D01*
X152000Y3000D01*
X149000Y56000D02*
X136500Y68500D01*
X149000Y56000D02*
X149000Y3000D01*
D19*
X136550Y93500D02*
X136500Y93500D01*
X151050Y79000D02*
X155500Y79000D01*
X151050Y79000D02*
X136550Y93500D01*
X116500Y128500D02*
X116500Y133000D01*
X108000Y141500D01*
D24*
X131500Y76000D03*
D18*
X136500Y78500D02*
X155000Y60000D01*
X155000Y3000D01*
D24*
X131500Y81000D03*
D18*
X136500Y83500D02*
X158000Y62000D01*
X158000Y3000D01*
D24*
X131500Y86000D03*
D18*
X136500Y88500D02*
X161000Y64000D01*
X161000Y3000D01*
D24*
X131500Y91000D03*
D19*
X137019Y98500D02*
X150019Y85000D01*
X177500Y85000D02*
X181000Y81500D01*
X181000Y3000D01*
X177500Y85000D02*
X150019Y85000D01*
X137019Y98500D02*
X136500Y98500D01*
X136500Y103500D02*
X137500Y103500D01*
X152500Y88500D01*
X180500Y88500D01*
X185000Y84000D01*
X185000Y3000D01*
D18*
X91500Y128500D02*
X90000Y130000D01*
X90000Y191000D01*
D24*
X94000Y123500D03*
D18*
X96500Y128500D02*
X93000Y132000D01*
X93000Y191000D01*
D24*
X99000Y123500D03*
D18*
X101500Y128500D02*
X96000Y134000D01*
X96000Y191000D01*
D24*
X104000Y123500D03*
D18*
X106500Y128500D02*
X99000Y136000D01*
X99000Y191000D01*
D24*
X109000Y123500D03*
D18*
X111500Y128500D02*
X102000Y138000D01*
X102000Y191250D01*
D24*
X114000Y123500D03*
X119000Y123500D03*
D18*
X121500Y128500D02*
X121500Y139500D01*
X114000Y147000D01*
X114000Y191250D01*
X71500Y108500D02*
X42000Y79000D01*
X3000Y79000D01*
D24*
X76500Y106000D03*
D18*
X71500Y103500D02*
X44000Y76000D01*
X3000Y76000D01*
D24*
X76500Y101000D03*
D18*
X41490Y73000D02*
X3000Y73000D01*
X46000Y73000D02*
X71500Y98500D01*
X46000Y73000D02*
X41490Y73000D01*
D24*
X76500Y96000D03*
D18*
X71500Y93500D02*
X69500Y91500D01*
X69418Y91500D01*
X47918Y70000D02*
X3000Y70000D01*
X47918Y70000D02*
X69418Y91500D01*
D24*
X76500Y91000D03*
D18*
X49161Y67000D02*
X3000Y67000D01*
X70661Y88500D02*
X71500Y88500D01*
X70661Y88500D02*
X49161Y67000D01*
D24*
X76500Y86000D03*
D18*
X71500Y83500D02*
X69904Y83500D01*
X9000Y64000D02*
X3250Y64000D01*
X9000Y64000D01*
X50404Y64000D02*
X69904Y83500D01*
X50404Y64000D02*
X9000Y64000D01*
X129000Y61000D02*
X129000Y3000D01*
X129000Y61000D02*
X126500Y63500D01*
D24*
X124000Y68500D03*
D18*
X126000Y59000D02*
X126000Y3000D01*
X126000Y59000D02*
X121500Y63500D01*
D24*
X119000Y68500D03*
D18*
X123000Y57000D02*
X123000Y3000D01*
X123000Y57000D02*
X116500Y63500D01*
D24*
X114000Y68500D03*
D18*
X111500Y63500D02*
X120000Y55000D01*
X120000Y3000D01*
D24*
X109000Y68500D03*
X104000Y68500D03*
D18*
X101500Y63500D02*
X100000Y62000D01*
X100000Y3000D01*
D24*
X99000Y68500D03*
D18*
X96500Y63500D02*
X96500Y63243D01*
X97000Y62743D01*
X97000Y3000D01*
D24*
X94000Y68500D03*
D18*
X91500Y63500D02*
X94000Y61000D01*
X94000Y3000D01*
D19*
X86500Y55500D02*
X86500Y63500D01*
X86500Y55500D02*
X90500Y51500D01*
X90500Y3000D01*
X81500Y54500D02*
X81500Y63500D01*
X81500Y54500D02*
X87000Y49000D01*
X87000Y3000D01*
D18*
X82500Y67000D02*
X84000Y68500D01*
X75000Y67000D02*
X70000Y62000D01*
D19*
X62000Y54000D01*
X62000Y40000D01*
D18*
X75000Y67000D02*
X82500Y67000D01*
D19*
X76500Y63500D02*
X76500Y42500D01*
X76000Y40000D01*
D20*
X83000Y33000D01*
X83000Y3500D01*
D19*
X76500Y71000D02*
X72000Y71000D01*
X55000Y54000D02*
X53000Y52000D01*
X49000Y48000D01*
X48000Y47000D01*
X55000Y54000D02*
X72000Y71000D01*
X75000Y74500D02*
X76500Y76000D01*
X52050Y56000D02*
X43000Y56000D01*
X70550Y74500D02*
X75000Y74500D01*
X70550Y74500D02*
X52050Y56000D01*
X43000Y56000D02*
X36000Y49000D01*
X34000Y47000D01*
D20*
X26000Y39000D01*
X26000Y3250D01*
M02*
