G04 EAGLE Gerber RS-274X export*
G75*
%MOMM*%
%FSLAX34Y34*%
%LPD*%
%INCopper Layer 15*%
%IPPOS*%
%AMOC8*
5,1,8,0,0,1.08239X$1,22.5*%
G01*
%ADD10C,0.808000*%
%ADD11C,0.706400*%


D10*
X98000Y102000D03*
X86000Y102000D03*
X86000Y114000D03*
X98000Y114000D03*
X110000Y114000D03*
X122000Y114000D03*
X122000Y102000D03*
X110000Y102000D03*
X86000Y90000D03*
X98000Y90000D03*
X110000Y90000D03*
X122000Y90000D03*
X122000Y78000D03*
X110000Y78000D03*
X98000Y78000D03*
X86000Y78000D03*
D11*
X174000Y78500D03*
X196000Y95000D03*
X170000Y95000D03*
X170000Y115000D03*
X179000Y123000D03*
X175000Y138000D03*
X155000Y149000D03*
X139000Y181000D03*
X108000Y161000D03*
X142000Y37000D03*
X114000Y37000D03*
X76000Y12000D03*
X62000Y12000D03*
X34000Y19000D03*
X18000Y19000D03*
X18000Y58000D03*
X25000Y91500D03*
X36500Y108500D03*
X11000Y122500D03*
X31500Y125500D03*
X22000Y137000D03*
X79000Y169000D03*
X84000Y134000D03*
X74000Y138000D03*
X169500Y128000D03*
X120000Y152000D03*
X114000Y48000D03*
X142000Y48000D03*
X48000Y19000D03*
X40000Y147000D03*
X8000Y48000D03*
M02*
