G04 EAGLE Gerber RS-274X export*
G75*
%MOMM*%
%FSLAX34Y34*%
%LPD*%
%INSilkscreen Top*%
%IPPOS*%
%AMOC8*
5,1,8,0,0,1.08239X$1,22.5*%
G01*
%ADD10C,0.200000*%
%ADD11C,0.050800*%
%ADD12C,0.100000*%
%ADD13C,0.300000*%
%ADD14C,0.076200*%


D10*
X161000Y177000D02*
X161002Y177063D01*
X161008Y177125D01*
X161018Y177187D01*
X161031Y177249D01*
X161049Y177309D01*
X161070Y177368D01*
X161095Y177426D01*
X161124Y177482D01*
X161156Y177536D01*
X161191Y177588D01*
X161229Y177637D01*
X161271Y177685D01*
X161315Y177729D01*
X161363Y177771D01*
X161412Y177809D01*
X161464Y177844D01*
X161518Y177876D01*
X161574Y177905D01*
X161632Y177930D01*
X161691Y177951D01*
X161751Y177969D01*
X161813Y177982D01*
X161875Y177992D01*
X161937Y177998D01*
X162000Y178000D01*
X162063Y177998D01*
X162125Y177992D01*
X162187Y177982D01*
X162249Y177969D01*
X162309Y177951D01*
X162368Y177930D01*
X162426Y177905D01*
X162482Y177876D01*
X162536Y177844D01*
X162588Y177809D01*
X162637Y177771D01*
X162685Y177729D01*
X162729Y177685D01*
X162771Y177637D01*
X162809Y177588D01*
X162844Y177536D01*
X162876Y177482D01*
X162905Y177426D01*
X162930Y177368D01*
X162951Y177309D01*
X162969Y177249D01*
X162982Y177187D01*
X162992Y177125D01*
X162998Y177063D01*
X163000Y177000D01*
X162998Y176937D01*
X162992Y176875D01*
X162982Y176813D01*
X162969Y176751D01*
X162951Y176691D01*
X162930Y176632D01*
X162905Y176574D01*
X162876Y176518D01*
X162844Y176464D01*
X162809Y176412D01*
X162771Y176363D01*
X162729Y176315D01*
X162685Y176271D01*
X162637Y176229D01*
X162588Y176191D01*
X162536Y176156D01*
X162482Y176124D01*
X162426Y176095D01*
X162368Y176070D01*
X162309Y176049D01*
X162249Y176031D01*
X162187Y176018D01*
X162125Y176008D01*
X162063Y176002D01*
X162000Y176000D01*
X161937Y176002D01*
X161875Y176008D01*
X161813Y176018D01*
X161751Y176031D01*
X161691Y176049D01*
X161632Y176070D01*
X161574Y176095D01*
X161518Y176124D01*
X161464Y176156D01*
X161412Y176191D01*
X161363Y176229D01*
X161315Y176271D01*
X161271Y176315D01*
X161229Y176363D01*
X161191Y176412D01*
X161156Y176464D01*
X161124Y176518D01*
X161095Y176574D01*
X161070Y176632D01*
X161049Y176691D01*
X161031Y176751D01*
X161018Y176813D01*
X161008Y176875D01*
X161002Y176937D01*
X161000Y177000D01*
D11*
X143254Y167751D02*
X146918Y162254D01*
X143254Y162254D02*
X146918Y167751D01*
X148779Y165918D02*
X150611Y167751D01*
X150611Y162254D01*
X148779Y162254D02*
X152443Y162254D01*
X158754Y105751D02*
X158754Y100254D01*
X162418Y100254D01*
X164279Y103918D02*
X166111Y105751D01*
X166111Y100254D01*
X164279Y100254D02*
X167943Y100254D01*
X124249Y163002D02*
X125165Y163918D01*
X124249Y163002D02*
X124249Y161170D01*
X125165Y160254D01*
X128830Y160254D01*
X129746Y161170D01*
X129746Y163002D01*
X128830Y163918D01*
X129746Y165779D02*
X129746Y169443D01*
X129746Y165779D02*
X126082Y169443D01*
X125165Y169443D01*
X124249Y168527D01*
X124249Y166695D01*
X125165Y165779D01*
X164249Y163002D02*
X165165Y163918D01*
X164249Y163002D02*
X164249Y161170D01*
X165165Y160254D01*
X168830Y160254D01*
X169746Y161170D01*
X169746Y163002D01*
X168830Y163918D01*
X166082Y165779D02*
X164249Y167611D01*
X169746Y167611D01*
X169746Y165779D02*
X169746Y169443D01*
X146165Y107418D02*
X145249Y106502D01*
X145249Y104670D01*
X146165Y103754D01*
X149830Y103754D01*
X150746Y104670D01*
X150746Y106502D01*
X149830Y107418D01*
X146165Y109279D02*
X145249Y110195D01*
X145249Y112027D01*
X146165Y112943D01*
X147082Y112943D01*
X147998Y112027D01*
X147998Y111111D01*
X147998Y112027D02*
X148914Y112943D01*
X149830Y112943D01*
X150746Y112027D01*
X150746Y110195D01*
X149830Y109279D01*
X44418Y127335D02*
X43502Y128251D01*
X41670Y128251D01*
X40754Y127335D01*
X40754Y123670D01*
X41670Y122754D01*
X43502Y122754D01*
X44418Y123670D01*
X46279Y128251D02*
X49943Y128251D01*
X46279Y128251D02*
X46279Y125502D01*
X48111Y126418D01*
X49027Y126418D01*
X49943Y125502D01*
X49943Y123670D01*
X49027Y122754D01*
X47195Y122754D01*
X46279Y123670D01*
X104665Y40369D02*
X103749Y39453D01*
X103749Y37621D01*
X104665Y36705D01*
X108330Y36705D01*
X109246Y37621D01*
X109246Y39453D01*
X108330Y40369D01*
X103749Y42229D02*
X103749Y45894D01*
X104665Y45894D01*
X108330Y42229D01*
X109246Y42229D01*
X131749Y39453D02*
X132665Y40369D01*
X131749Y39453D02*
X131749Y37621D01*
X132665Y36705D01*
X136330Y36705D01*
X137246Y37621D01*
X137246Y39453D01*
X136330Y40369D01*
X132665Y42229D02*
X131749Y43145D01*
X131749Y44978D01*
X132665Y45894D01*
X133582Y45894D01*
X134498Y44978D01*
X135414Y45894D01*
X136330Y45894D01*
X137246Y44978D01*
X137246Y43145D01*
X136330Y42229D01*
X135414Y42229D01*
X134498Y43145D01*
X133582Y42229D01*
X132665Y42229D01*
X134498Y43145D02*
X134498Y44978D01*
X158249Y113428D02*
X159165Y114344D01*
X158249Y113428D02*
X158249Y111596D01*
X159165Y110680D01*
X162830Y110680D01*
X163746Y111596D01*
X163746Y113428D01*
X162830Y114344D01*
X160082Y116205D02*
X158249Y118037D01*
X163746Y118037D01*
X163746Y116205D02*
X163746Y119869D01*
X162830Y121729D02*
X159165Y121729D01*
X158249Y122645D01*
X158249Y124478D01*
X159165Y125394D01*
X162830Y125394D01*
X163746Y124478D01*
X163746Y122645D01*
X162830Y121729D01*
X159165Y125394D01*
X159918Y139835D02*
X159002Y140751D01*
X157170Y140751D01*
X156254Y139835D01*
X156254Y136170D01*
X157170Y135254D01*
X159002Y135254D01*
X159918Y136170D01*
X161779Y138918D02*
X163611Y140751D01*
X163611Y135254D01*
X161779Y135254D02*
X165443Y135254D01*
X167303Y138918D02*
X169136Y140751D01*
X169136Y135254D01*
X170968Y135254D02*
X167303Y135254D01*
X33344Y138835D02*
X32428Y139751D01*
X30596Y139751D01*
X29680Y138835D01*
X29680Y135170D01*
X30596Y134254D01*
X32428Y134254D01*
X33344Y135170D01*
X35205Y137918D02*
X37037Y139751D01*
X37037Y134254D01*
X35205Y134254D02*
X38869Y134254D01*
X43478Y134254D02*
X43478Y139751D01*
X40729Y137002D01*
X44394Y137002D01*
X70002Y161751D02*
X70918Y160835D01*
X70002Y161751D02*
X68170Y161751D01*
X67254Y160835D01*
X67254Y157170D01*
X68170Y156254D01*
X70002Y156254D01*
X70918Y157170D01*
X72779Y159918D02*
X74611Y161751D01*
X74611Y156254D01*
X72779Y156254D02*
X76443Y156254D01*
X78303Y161751D02*
X81968Y161751D01*
X78303Y161751D02*
X78303Y159002D01*
X80136Y159918D01*
X81052Y159918D01*
X81968Y159002D01*
X81968Y157170D01*
X81052Y156254D01*
X79220Y156254D01*
X78303Y157170D01*
X29705Y111251D02*
X33369Y105754D01*
X29705Y105754D02*
X33369Y111251D01*
X35229Y105754D02*
X38894Y105754D01*
X38894Y109418D02*
X35229Y105754D01*
X38894Y109418D02*
X38894Y110335D01*
X37978Y111251D01*
X36145Y111251D01*
X35229Y110335D01*
X9165Y106418D02*
X8249Y105502D01*
X8249Y103670D01*
X9165Y102754D01*
X12830Y102754D01*
X13746Y103670D01*
X13746Y105502D01*
X12830Y106418D01*
X10082Y108279D02*
X8249Y110111D01*
X13746Y110111D01*
X13746Y108279D02*
X13746Y111943D01*
X8249Y113803D02*
X8249Y117468D01*
X9165Y117468D01*
X12830Y113803D01*
X13746Y113803D01*
X31428Y94251D02*
X32344Y93335D01*
X31428Y94251D02*
X29596Y94251D01*
X28680Y93335D01*
X28680Y89670D01*
X29596Y88754D01*
X31428Y88754D01*
X32344Y89670D01*
X34205Y92418D02*
X36037Y94251D01*
X36037Y88754D01*
X34205Y88754D02*
X37869Y88754D01*
X39729Y93335D02*
X40645Y94251D01*
X42478Y94251D01*
X43394Y93335D01*
X43394Y92418D01*
X42478Y91502D01*
X43394Y90586D01*
X43394Y89670D01*
X42478Y88754D01*
X40645Y88754D01*
X39729Y89670D01*
X39729Y90586D01*
X40645Y91502D01*
X39729Y92418D01*
X39729Y93335D01*
X40645Y91502D02*
X42478Y91502D01*
X53254Y180254D02*
X53254Y185751D01*
X53254Y180254D02*
X56918Y180254D01*
X58779Y184835D02*
X59695Y185751D01*
X61527Y185751D01*
X62443Y184835D01*
X62443Y183918D01*
X61527Y183002D01*
X60611Y183002D01*
X61527Y183002D02*
X62443Y182086D01*
X62443Y181170D01*
X61527Y180254D01*
X59695Y180254D01*
X58779Y181170D01*
X52746Y157254D02*
X47249Y157254D01*
X52746Y157254D02*
X52746Y160918D01*
X52746Y162779D02*
X52746Y166443D01*
X52746Y162779D02*
X49082Y166443D01*
X48165Y166443D01*
X47249Y165527D01*
X47249Y163695D01*
X48165Y162779D01*
D12*
X66500Y66000D02*
X66500Y58500D01*
X74000Y58500D01*
X134000Y58500D02*
X141500Y58500D01*
X141500Y66000D01*
X141500Y126000D02*
X141500Y133500D01*
X134000Y133500D01*
X74000Y133500D02*
X66500Y133500D01*
X66500Y126000D01*
D13*
X60500Y131000D02*
X60502Y131063D01*
X60508Y131125D01*
X60518Y131187D01*
X60531Y131249D01*
X60549Y131309D01*
X60570Y131368D01*
X60595Y131426D01*
X60624Y131482D01*
X60656Y131536D01*
X60691Y131588D01*
X60729Y131637D01*
X60771Y131685D01*
X60815Y131729D01*
X60863Y131771D01*
X60912Y131809D01*
X60964Y131844D01*
X61018Y131876D01*
X61074Y131905D01*
X61132Y131930D01*
X61191Y131951D01*
X61251Y131969D01*
X61313Y131982D01*
X61375Y131992D01*
X61437Y131998D01*
X61500Y132000D01*
X61563Y131998D01*
X61625Y131992D01*
X61687Y131982D01*
X61749Y131969D01*
X61809Y131951D01*
X61868Y131930D01*
X61926Y131905D01*
X61982Y131876D01*
X62036Y131844D01*
X62088Y131809D01*
X62137Y131771D01*
X62185Y131729D01*
X62229Y131685D01*
X62271Y131637D01*
X62309Y131588D01*
X62344Y131536D01*
X62376Y131482D01*
X62405Y131426D01*
X62430Y131368D01*
X62451Y131309D01*
X62469Y131249D01*
X62482Y131187D01*
X62492Y131125D01*
X62498Y131063D01*
X62500Y131000D01*
X62498Y130937D01*
X62492Y130875D01*
X62482Y130813D01*
X62469Y130751D01*
X62451Y130691D01*
X62430Y130632D01*
X62405Y130574D01*
X62376Y130518D01*
X62344Y130464D01*
X62309Y130412D01*
X62271Y130363D01*
X62229Y130315D01*
X62185Y130271D01*
X62137Y130229D01*
X62088Y130191D01*
X62036Y130156D01*
X61982Y130124D01*
X61926Y130095D01*
X61868Y130070D01*
X61809Y130049D01*
X61749Y130031D01*
X61687Y130018D01*
X61625Y130008D01*
X61563Y130002D01*
X61500Y130000D01*
X61437Y130002D01*
X61375Y130008D01*
X61313Y130018D01*
X61251Y130031D01*
X61191Y130049D01*
X61132Y130070D01*
X61074Y130095D01*
X61018Y130124D01*
X60964Y130156D01*
X60912Y130191D01*
X60863Y130229D01*
X60815Y130271D01*
X60771Y130315D01*
X60729Y130363D01*
X60691Y130412D01*
X60656Y130464D01*
X60624Y130518D01*
X60595Y130574D01*
X60570Y130632D01*
X60549Y130691D01*
X60531Y130751D01*
X60518Y130813D01*
X60508Y130875D01*
X60502Y130937D01*
X60500Y131000D01*
D14*
X95381Y100627D02*
X95381Y92922D01*
X96922Y91381D01*
X100004Y91381D01*
X101545Y92922D01*
X101545Y100627D01*
X104589Y97545D02*
X107671Y100627D01*
X107671Y91381D01*
X104589Y91381D02*
X110753Y91381D01*
D11*
X159002Y81751D02*
X159918Y80835D01*
X159002Y81751D02*
X157170Y81751D01*
X156254Y80835D01*
X156254Y77170D01*
X157170Y76254D01*
X159002Y76254D01*
X159918Y77170D01*
X161779Y77170D02*
X162695Y76254D01*
X164527Y76254D01*
X165443Y77170D01*
X165443Y80835D01*
X164527Y81751D01*
X162695Y81751D01*
X161779Y80835D01*
X161779Y79918D01*
X162695Y79002D01*
X165443Y79002D01*
X176249Y106502D02*
X177165Y107418D01*
X176249Y106502D02*
X176249Y104670D01*
X177165Y103754D01*
X180830Y103754D01*
X181746Y104670D01*
X181746Y106502D01*
X180830Y107418D01*
X181746Y112027D02*
X176249Y112027D01*
X178998Y109279D01*
X178998Y112943D01*
X208249Y104502D02*
X209165Y105418D01*
X208249Y104502D02*
X208249Y102670D01*
X209165Y101754D01*
X212830Y101754D01*
X213746Y102670D01*
X213746Y104502D01*
X212830Y105418D01*
X213746Y107279D02*
X213746Y110943D01*
X213746Y107279D02*
X210082Y110943D01*
X209165Y110943D01*
X208249Y110027D01*
X208249Y108195D01*
X209165Y107279D01*
X213746Y112803D02*
X213746Y116468D01*
X210082Y116468D02*
X213746Y112803D01*
X210082Y116468D02*
X209165Y116468D01*
X208249Y115552D01*
X208249Y113720D01*
X209165Y112803D01*
X129918Y147835D02*
X129002Y148751D01*
X127170Y148751D01*
X126254Y147835D01*
X126254Y144170D01*
X127170Y143254D01*
X129002Y143254D01*
X129918Y144170D01*
X131779Y146918D02*
X133611Y148751D01*
X133611Y143254D01*
X131779Y143254D02*
X135443Y143254D01*
X137303Y143254D02*
X140968Y143254D01*
X140968Y146918D02*
X137303Y143254D01*
X140968Y146918D02*
X140968Y147835D01*
X140052Y148751D01*
X138220Y148751D01*
X137303Y147835D01*
X106165Y143918D02*
X105249Y143002D01*
X105249Y141170D01*
X106165Y140254D01*
X109830Y140254D01*
X110746Y141170D01*
X110746Y143002D01*
X109830Y143918D01*
X107082Y145779D02*
X105249Y147611D01*
X110746Y147611D01*
X110746Y145779D02*
X110746Y149443D01*
X106165Y151303D02*
X105249Y152220D01*
X105249Y154052D01*
X106165Y154968D01*
X107082Y154968D01*
X107998Y154052D01*
X107998Y153136D01*
X107998Y154052D02*
X108914Y154968D01*
X109830Y154968D01*
X110746Y154052D01*
X110746Y152220D01*
X109830Y151303D01*
X16165Y36869D02*
X15249Y35953D01*
X15249Y34121D01*
X16165Y33205D01*
X19830Y33205D01*
X20746Y34121D01*
X20746Y35953D01*
X19830Y36869D01*
X16165Y40562D02*
X15249Y42394D01*
X16165Y40562D02*
X17998Y38729D01*
X19830Y38729D01*
X20746Y39645D01*
X20746Y41478D01*
X19830Y42394D01*
X18914Y42394D01*
X17998Y41478D01*
X17998Y38729D01*
X31249Y32428D02*
X32165Y33344D01*
X31249Y32428D02*
X31249Y30596D01*
X32165Y29680D01*
X35830Y29680D01*
X36746Y30596D01*
X36746Y32428D01*
X35830Y33344D01*
X33082Y35205D02*
X31249Y37037D01*
X36746Y37037D01*
X36746Y35205D02*
X36746Y38869D01*
X35830Y40729D02*
X36746Y41645D01*
X36746Y43478D01*
X35830Y44394D01*
X32165Y44394D01*
X31249Y43478D01*
X31249Y41645D01*
X32165Y40729D01*
X33082Y40729D01*
X33998Y41645D01*
X33998Y44394D01*
X59249Y25428D02*
X60165Y26344D01*
X59249Y25428D02*
X59249Y23596D01*
X60165Y22680D01*
X63830Y22680D01*
X64746Y23596D01*
X64746Y25428D01*
X63830Y26344D01*
X64746Y28205D02*
X64746Y31869D01*
X64746Y28205D02*
X61082Y31869D01*
X60165Y31869D01*
X59249Y30953D01*
X59249Y29121D01*
X60165Y28205D01*
X60165Y33729D02*
X63830Y33729D01*
X60165Y33729D02*
X59249Y34645D01*
X59249Y36478D01*
X60165Y37394D01*
X63830Y37394D01*
X64746Y36478D01*
X64746Y34645D01*
X63830Y33729D01*
X60165Y37394D01*
X50746Y35254D02*
X45249Y35254D01*
X50746Y35254D02*
X50746Y38918D01*
X50746Y43527D02*
X45249Y43527D01*
X47998Y40779D01*
X47998Y44443D01*
X74918Y147835D02*
X74002Y148751D01*
X72170Y148751D01*
X71254Y147835D01*
X71254Y144170D01*
X72170Y143254D01*
X74002Y143254D01*
X74918Y144170D01*
X76779Y146918D02*
X78611Y148751D01*
X78611Y143254D01*
X76779Y143254D02*
X80443Y143254D01*
X84136Y147835D02*
X85968Y148751D01*
X84136Y147835D02*
X82303Y146002D01*
X82303Y144170D01*
X83220Y143254D01*
X85052Y143254D01*
X85968Y144170D01*
X85968Y145086D01*
X85052Y146002D01*
X82303Y146002D01*
X74165Y26344D02*
X73249Y25428D01*
X73249Y23596D01*
X74165Y22680D01*
X77830Y22680D01*
X78746Y23596D01*
X78746Y25428D01*
X77830Y26344D01*
X78746Y28205D02*
X78746Y31869D01*
X78746Y28205D02*
X75082Y31869D01*
X74165Y31869D01*
X73249Y30953D01*
X73249Y29121D01*
X74165Y28205D01*
X75082Y33729D02*
X73249Y35562D01*
X78746Y35562D01*
X78746Y37394D02*
X78746Y33729D01*
M02*
