G04 EAGLE Gerber RS-274X export*
G75*
%MOMM*%
%FSLAX34Y34*%
%LPD*%
%INSolderpaste Top*%
%IPPOS*%
%AMOC8*
5,1,8,0,0,1.08239X$1,22.5*%
G01*
%ADD10R,0.950000X0.850000*%
%ADD11R,0.600000X0.600000*%
%ADD12R,1.050000X0.900000*%
%ADD13R,1.000000X1.800000*%
%ADD14R,0.900000X1.050000*%
%ADD15R,4.850000X4.850000*%
%ADD16C,0.200000*%


D10*
X154250Y170750D03*
X139750Y170750D03*
X139750Y159250D03*
X154250Y159250D03*
D11*
X158000Y103000D03*
X169000Y103000D03*
X127000Y159500D03*
X127000Y170500D03*
X167000Y170500D03*
X167000Y159500D03*
X148000Y103000D03*
X148000Y114000D03*
X51000Y125500D03*
X40000Y125500D03*
X106500Y48000D03*
X106500Y37000D03*
X134500Y48000D03*
X134500Y37000D03*
X161000Y127500D03*
X161000Y116500D03*
X155500Y138000D03*
X166500Y138000D03*
D12*
X49000Y137000D03*
X33000Y137000D03*
X66000Y159000D03*
X82000Y159000D03*
D13*
X24000Y108500D03*
X49000Y108500D03*
D11*
X11000Y114000D03*
X11000Y103000D03*
X33500Y91500D03*
X44500Y91500D03*
X51500Y183000D03*
X62500Y183000D03*
D14*
X50000Y153000D03*
X50000Y169000D03*
D15*
X104000Y96000D03*
D16*
X76500Y96000D03*
X76500Y101000D03*
X76500Y106000D03*
X76500Y111000D03*
X76500Y116000D03*
X71500Y118500D03*
X71500Y108500D03*
X71500Y103500D03*
X71500Y98500D03*
X71500Y93500D03*
X76500Y91000D03*
X76500Y86000D03*
X71500Y88500D03*
X71500Y83500D03*
X71500Y78500D03*
X76500Y76000D03*
X76500Y71000D03*
X76500Y63500D03*
X81500Y63500D03*
X84000Y68500D03*
X86500Y63500D03*
X91500Y63500D03*
X96500Y63500D03*
X101500Y63500D03*
X106500Y63500D03*
X111500Y63500D03*
X116500Y63500D03*
X121500Y63500D03*
X126500Y63500D03*
X131500Y63500D03*
X124000Y68500D03*
X119000Y68500D03*
X114000Y68500D03*
X109000Y68500D03*
X104000Y68500D03*
X99000Y68500D03*
X94000Y68500D03*
X131500Y76000D03*
X136500Y73500D03*
X136500Y68500D03*
X136500Y78500D03*
X131500Y81000D03*
X136500Y83500D03*
X131500Y86000D03*
X131500Y91000D03*
X136500Y88500D03*
X136500Y93500D03*
X136500Y98500D03*
X136500Y103500D03*
X131500Y106000D03*
X131500Y111000D03*
X136500Y113500D03*
X131500Y116000D03*
X136500Y123500D03*
X71500Y123500D03*
X84000Y123500D03*
X89000Y123500D03*
X94000Y123500D03*
X96500Y128500D03*
X99000Y123500D03*
X101500Y128500D03*
X104000Y123500D03*
X106500Y128500D03*
X109000Y123500D03*
X111500Y128500D03*
X114000Y123500D03*
X116500Y128500D03*
X119000Y123500D03*
X121500Y128500D03*
X126500Y128500D03*
X131500Y128500D03*
X79000Y123500D03*
X91500Y128500D03*
D11*
X155500Y79000D03*
X166500Y79000D03*
X179000Y103000D03*
X179000Y114000D03*
X211000Y103000D03*
X211000Y114000D03*
X127500Y146000D03*
X138500Y146000D03*
X108000Y141500D03*
X108000Y152500D03*
D14*
X18000Y47000D03*
X18000Y31000D03*
X34000Y47000D03*
X34000Y31000D03*
X62000Y40000D03*
X62000Y24000D03*
X48000Y31000D03*
X48000Y47000D03*
D11*
X72500Y146000D03*
X83500Y146000D03*
D14*
X76000Y40000D03*
X76000Y24000D03*
M02*
